<svg width="49" height="24" viewBox="0 0 49 24" fill="none" xmlns="http://www.w3.org/2000/svg">
<path d="M2 10.5C1.17157 10.5 0.5 11.1716 0.5 12C0.5 12.8284 1.17157 13.5 2 13.5V10.5ZM48.0607 13.0607C48.6464 12.4749 48.6464 11.5251 48.0607 10.9393L38.5147 1.3934C37.9289 0.807611 36.9792 0.807611 36.3934 1.3934C35.8076 1.97919 35.8076 2.92893 36.3934 3.51472L44.8787 12L36.3934 20.4853C35.8076 21.0711 35.8076 22.0208 36.3934 22.6066C36.9792 23.1924 37.9289 23.1924 38.5147 22.6066L48.0607 13.0607ZM2 13.5H47V10.5H2V13.5Z" fill="#0AA1DD"/>
</svg>
