<svg width="17" height="17" viewBox="0 0 17 17" fill="none" xmlns="http://www.w3.org/2000/svg">
<path d="M13.0156 10.625C12.5757 10.625 12.2188 10.9819 12.2188 11.4219V15.1406C12.2188 15.2869 12.0994 15.4062 11.9531 15.4062H1.85938C1.71308 15.4062 1.59375 15.2869 1.59375 15.1406V5.04688C1.59375 4.90058 1.71308 4.78125 1.85938 4.78125H5.57812C6.01973 4.78125 6.375 4.42598 6.375 3.98438C6.375 3.54277 6.01973 3.1875 5.57812 3.1875H1.85938C0.834395 3.1875 0 4.0209 0 5.04688V15.1406C0 16.1666 0.834395 17 1.85938 17H11.9531C12.9784 17 13.8125 16.1659 13.8125 15.1406V11.4219C13.8125 10.9836 13.4572 10.625 13.0156 10.625ZM16.2031 0H10.625C10.1851 0 9.82812 0.356934 9.82812 0.796875C9.82812 1.23682 10.1867 1.59375 10.625 1.59375H14.2807L6.07617 9.79492C5.76489 10.1062 5.76489 10.6104 6.07617 10.9218C6.23223 11.0799 6.43477 11.1562 6.64062 11.1562C6.84648 11.1562 7.04836 11.0784 7.20408 10.9228L15.4062 2.72066V6.375C15.4062 6.81494 15.7632 7.17188 16.2031 7.17188C16.6431 7.17188 17 6.8166 17 6.375V0.796875C17 0.356934 16.6447 0 16.2031 0Z" fill="#0AA1DD"/>
</svg>
