<svg width="208" height="105" viewBox="0 0 208 105" fill="none" xmlns="http://www.w3.org/2000/svg">
<rect width="107" height="105" rx="10" fill="#0AA1DD"/>
<path d="M46.4043 58.8633C46.4043 61.1836 45.5664 63.0117 43.8906 64.3477C42.2266 65.6836 39.9062 66.3516 36.9297 66.3516C34.1875 66.3516 31.7617 65.8359 29.6523 64.8047V59.7422C31.3867 60.5156 32.8516 61.0605 34.0469 61.377C35.2539 61.6934 36.3555 61.8516 37.3516 61.8516C38.5469 61.8516 39.4609 61.623 40.0938 61.166C40.7383 60.709 41.0605 60.0293 41.0605 59.127C41.0605 58.623 40.9199 58.1777 40.6387 57.791C40.3574 57.3926 39.9414 57.0117 39.3906 56.6484C38.8516 56.2852 37.7441 55.7051 36.0684 54.9082C34.498 54.1699 33.3203 53.4609 32.5352 52.7812C31.75 52.1016 31.123 51.3105 30.6543 50.4082C30.1855 49.5059 29.9512 48.4512 29.9512 47.2441C29.9512 44.9707 30.7188 43.1836 32.2539 41.8828C33.8008 40.582 35.9336 39.9316 38.6523 39.9316C39.9883 39.9316 41.2598 40.0898 42.4668 40.4062C43.6855 40.7227 44.957 41.168 46.2812 41.7422L44.5234 45.9785C43.1523 45.416 42.0156 45.0234 41.1133 44.8008C40.2227 44.5781 39.3438 44.4668 38.4766 44.4668C37.4453 44.4668 36.6543 44.707 36.1035 45.1875C35.5527 45.668 35.2773 46.2949 35.2773 47.0684C35.2773 47.5488 35.3887 47.9707 35.6113 48.334C35.834 48.6855 36.1855 49.0312 36.666 49.3711C37.1582 49.6992 38.3125 50.2969 40.1289 51.1641C42.5312 52.3125 44.1777 53.4668 45.0684 54.627C45.959 55.7754 46.4043 57.1875 46.4043 58.8633ZM58.6211 66.3516C52.5039 66.3516 49.4453 62.9941 49.4453 56.2793C49.4453 52.9395 50.2773 50.3906 51.9414 48.6328C53.6055 46.8633 55.9902 45.9785 59.0957 45.9785C61.3691 45.9785 63.4082 46.4238 65.2129 47.3145L63.6309 51.4629C62.7871 51.123 62.002 50.8477 61.2754 50.6367C60.5488 50.4141 59.8223 50.3027 59.0957 50.3027C56.3066 50.3027 54.9121 52.2832 54.9121 56.2441C54.9121 60.0879 56.3066 62.0098 59.0957 62.0098C60.127 62.0098 61.082 61.875 61.9609 61.6055C62.8398 61.3242 63.7188 60.8906 64.5977 60.3047V64.8926C63.7305 65.4434 62.8516 65.8242 61.9609 66.0352C61.082 66.2461 59.9688 66.3516 58.6211 66.3516ZM68.9395 41.2676C68.9395 39.5215 69.9121 38.6484 71.8574 38.6484C73.8027 38.6484 74.7754 39.5215 74.7754 41.2676C74.7754 42.0996 74.5293 42.75 74.0371 43.2188C73.5566 43.6758 72.8301 43.9043 71.8574 43.9043C69.9121 43.9043 68.9395 43.0254 68.9395 41.2676ZM74.5293 66H69.168V46.3477H74.5293V66Z" fill="#FDFEFF"/>
<path d="M148.99 51.5684H159.186V64.8926C157.533 65.4316 155.975 65.8066 154.51 66.0176C153.057 66.2402 151.568 66.3516 150.045 66.3516C146.166 66.3516 143.201 65.2148 141.15 62.9414C139.111 60.6562 138.092 57.3809 138.092 53.1152C138.092 48.9668 139.275 45.7324 141.643 43.4121C144.021 41.0918 147.314 39.9316 151.521 39.9316C154.158 39.9316 156.701 40.459 159.15 41.5137L157.34 45.873C155.465 44.9355 153.514 44.4668 151.486 44.4668C149.131 44.4668 147.244 45.2578 145.826 46.8398C144.408 48.4219 143.699 50.5488 143.699 53.2207C143.699 56.0098 144.268 58.1426 145.404 59.6191C146.553 61.084 148.217 61.8164 150.396 61.8164C151.533 61.8164 152.688 61.6992 153.859 61.4648V56.1035H148.99V51.5684ZM173.037 49.793C171.9 49.793 171.01 50.1562 170.365 50.8828C169.721 51.5977 169.352 52.6172 169.258 53.9414H176.781C176.758 52.6172 176.412 51.5977 175.744 50.8828C175.076 50.1562 174.174 49.793 173.037 49.793ZM173.793 66.3516C170.629 66.3516 168.156 65.4785 166.375 63.7324C164.594 61.9863 163.703 59.5137 163.703 56.3145C163.703 53.0215 164.523 50.4785 166.164 48.6855C167.816 46.8809 170.096 45.9785 173.002 45.9785C175.779 45.9785 177.941 46.7695 179.488 48.3516C181.035 49.9336 181.809 52.1191 181.809 54.9082V57.5098H169.135C169.193 59.0332 169.645 60.2227 170.488 61.0781C171.332 61.9336 172.516 62.3613 174.039 62.3613C175.223 62.3613 176.342 62.2383 177.396 61.9922C178.451 61.7461 179.553 61.3535 180.701 60.8145V64.9629C179.764 65.4316 178.762 65.7773 177.695 66C176.629 66.2344 175.328 66.3516 173.793 66.3516ZM204.309 66H198.947V54.5215C198.947 53.1035 198.695 52.043 198.191 51.3398C197.688 50.625 196.885 50.2676 195.783 50.2676C194.283 50.2676 193.199 50.7715 192.531 51.7793C191.863 52.7754 191.529 54.4336 191.529 56.7539V66H186.168V46.3477H190.264L190.984 48.8613H191.283C191.881 47.9121 192.701 47.1973 193.744 46.7168C194.799 46.2246 195.994 45.9785 197.33 45.9785C199.615 45.9785 201.35 46.5996 202.533 47.8418C203.717 49.0723 204.309 50.8535 204.309 53.1855V66Z" fill="#0AA1DD"/>
<line x1="93" y1="54.5" x2="107" y2="54.5" stroke="#FDFEFF" stroke-width="5"/>
<line x1="107" y1="54.5" x2="121" y2="54.5" stroke="#0AA1DD" stroke-width="5"/>
</svg>
