<svg width="665" height="423" viewBox="0 0 665 423" fill="none" xmlns="http://www.w3.org/2000/svg">
<path d="M332.623 422.174C149.372 422.174 0.8172 413.485 0.8172 402.767C0.8172 392.048 149.372 383.359 332.623 383.359C515.874 383.359 664.429 392.048 664.429 402.767C664.429 413.485 515.874 422.174 332.623 422.174Z" fill="#F5F5F5"/>
<path d="M532.709 244.782H557.721C563.801 244.782 568.73 248.636 568.73 253.39V268.205C568.73 272.959 563.801 276.813 557.721 276.813H532.709V244.782Z" fill="#0AA1DD"/>
<path d="M541.727 314.51L550.417 175.929C551.181 163.741 549.444 151.526 545.313 140.037C541.182 128.548 534.745 118.029 526.398 109.128C518.051 100.226 507.971 93.1322 496.781 88.2828C485.591 83.4335 473.527 80.9316 461.335 80.9316C438.532 80.9317 416.594 89.6722 400.022 105.36C383.45 121.047 373.502 142.491 372.218 165.293L363.105 327.154H528.285C531.711 327.154 535.008 325.846 537.505 323.497C540.003 321.148 541.512 317.935 541.727 314.51Z" fill="#0AA1DD"/>
<path opacity="0.1" d="M542.041 309.491L550.417 175.928C551.181 163.741 549.444 151.526 545.313 140.037C541.182 128.548 534.744 118.028 526.397 109.127C518.05 100.226 507.971 93.1317 496.781 88.2824C485.591 83.433 473.527 80.9311 461.334 80.9312V80.9312C438.532 80.9312 416.593 89.6717 400.022 105.359C383.45 121.046 373.502 142.491 372.218 165.292L363.105 327.153H523.263C528.049 327.153 532.655 325.327 536.144 322.045C539.633 318.764 541.742 314.275 542.041 309.491V309.491Z" fill="#333333"/>
<path d="M514.918 327.154L524.401 175.929C525.165 163.741 523.428 151.526 519.297 140.037C515.166 128.548 508.729 118.029 500.382 109.128C492.035 100.226 481.955 93.1322 470.765 88.2828C459.575 83.4335 447.511 80.9316 435.319 80.9316C412.516 80.9317 390.578 89.6722 374.006 105.36C357.434 121.047 347.486 142.491 346.202 165.293L337.089 327.154H514.918Z" fill="#0AA1DD"/>
<path d="M517.761 353.188H520.044C520.658 353.151 521.24 352.898 521.686 352.473C522.131 352.048 522.412 351.478 522.478 350.865L525.844 327.161H511.96L515.326 350.865C515.392 351.478 515.673 352.047 516.119 352.473C516.565 352.898 517.147 353.151 517.761 353.188V353.188Z" fill="#0AA1DD"/>
<path opacity="0.7" d="M517.761 353.188H520.044C520.658 353.151 521.24 352.898 521.686 352.473C522.131 352.048 522.412 351.478 522.478 350.865L525.844 327.161H511.96L515.326 350.865C515.392 351.478 515.673 352.047 516.119 352.473C516.565 352.898 517.147 353.151 517.761 353.188V353.188Z" fill="#FDFEFF"/>
<path d="M294.177 353.188H296.245C296.829 353.126 297.371 352.858 297.775 352.433C298.18 352.007 298.42 351.451 298.453 350.865L301.504 327.161H288.918L291.969 350.866C292.002 351.452 292.242 352.008 292.647 352.433C293.051 352.858 293.593 353.126 294.177 353.188V353.188Z" fill="#0AA1DD"/>
<path opacity="0.5" d="M294.177 353.188H296.245C296.829 353.126 297.371 352.858 297.775 352.433C298.18 352.007 298.42 351.451 298.453 350.865L301.504 327.161H288.918L291.969 350.866C292.002 351.452 292.242 352.008 292.647 352.433C293.051 352.858 293.593 353.126 294.177 353.188V353.188Z" fill="#FDFEFF"/>
<path d="M358.55 353.188H360.618C361.202 353.126 361.744 352.858 362.148 352.433C362.553 352.007 362.793 351.452 362.826 350.865L365.877 327.16H353.291L356.342 350.865C356.375 351.451 356.615 352.007 357.019 352.433C357.424 352.859 357.966 353.126 358.55 353.188V353.188Z" fill="#0AA1DD"/>
<path opacity="0.7" d="M358.55 353.188H360.618C361.202 353.126 361.744 352.858 362.148 352.433C362.553 352.007 362.793 351.452 362.826 350.865L365.877 327.16H353.291L356.342 350.865C356.375 351.451 356.615 352.007 357.019 352.433C357.424 352.859 357.966 353.126 358.55 353.188V353.188Z" fill="#FDFEFF"/>
<path d="M448.457 353.188H450.739C451.353 353.151 451.935 352.898 452.381 352.473C452.827 352.048 453.107 351.478 453.174 350.865L456.54 327.161H442.656L446.022 350.865C446.088 351.478 446.369 352.047 446.814 352.473C447.26 352.898 447.842 353.151 448.457 353.188V353.188Z" fill="#0AA1DD"/>
<path opacity="0.5" d="M448.457 353.188H450.739C451.353 353.151 451.935 352.898 452.381 352.473C452.827 352.048 453.107 351.478 453.174 350.865L456.54 327.161H442.656L446.022 350.865C446.088 351.478 446.369 352.047 446.814 352.473C447.26 352.898 447.842 353.151 448.457 353.188V353.188Z" fill="#FDFEFF"/>
<path d="M373.108 270.042H312.257L308.225 211.284L307.366 198.671V198.652L306.97 192.847C306.857 191.322 306.659 189.805 306.375 188.302C306.309 187.974 306.226 187.627 306.16 187.298C306.125 187.049 306.064 186.804 305.978 186.568C304.332 180.584 301.134 175.143 296.709 170.797C291.612 165.742 284.867 162.696 277.709 162.218H334.942C335.569 162.181 336.197 162.163 336.825 162.163C344.598 162.214 352.042 165.314 357.56 170.797C361.985 175.143 365.183 180.584 366.829 186.568C366.915 186.804 366.976 187.049 367.011 187.298C367.419 189.125 367.69 190.98 367.82 192.847L368.217 198.652V198.67L373.108 270.042Z" fill="#0AA1DD"/>
<path opacity="0.1" d="M373.108 270.042H312.257L308.225 211.284L307.366 198.671V198.652L306.97 192.847C306.857 191.322 306.659 189.805 306.375 188.302C306.309 187.974 306.226 187.627 306.16 187.298C306.125 187.049 306.064 186.804 305.978 186.568C304.332 180.584 301.134 175.143 296.709 170.797C291.612 165.742 284.867 162.696 277.709 162.218H334.942C335.569 162.181 336.197 162.163 336.825 162.163C344.598 162.214 352.042 165.314 357.56 170.797C361.985 175.143 365.183 180.584 366.829 186.568C366.915 186.804 366.976 187.049 367.011 187.298C367.419 189.125 367.69 190.98 367.82 192.847L368.217 198.652V198.67L373.108 270.042Z" fill="#333333"/>
<g opacity="0.1">
<path opacity="0.1" d="M421.334 238.742H445.78C451.722 238.742 456.54 242.509 456.54 247.156V261.635C456.54 266.281 451.722 270.048 445.78 270.048H421.334V238.742Z" fill="#333333"/>
</g>
<path d="M321.545 238.742H429.169C434.296 238.742 438.452 242.905 438.452 248.04V260.751C438.452 265.886 434.296 270.048 429.169 270.048H321.545C316.418 270.048 312.262 265.886 312.262 260.751V248.04C312.262 242.905 316.418 238.742 321.545 238.742Z" fill="#0AA1DD"/>
<path d="M575.4 196.882C575.402 205.066 572.517 212.988 567.255 219.25C561.993 225.512 554.692 229.711 546.639 231.107L540.333 314.617C539.787 321.718 534.647 327.158 528.487 327.158H461.36C467.521 327.158 472.661 321.718 473.207 314.617L476.579 270.042L479.513 231.107C484.789 230.197 489.781 228.074 494.098 224.903C498.416 221.732 501.939 217.601 504.391 212.836C504.719 212.233 505.011 211.594 505.284 210.955C507.266 206.53 508.285 201.732 508.273 196.882C508.273 194.502 508.029 192.129 507.544 189.799C507.362 188.868 507.125 187.938 506.87 187.043C505.649 182.959 503.697 179.131 501.111 175.744L501.092 175.726C497.852 171.511 493.689 168.097 488.924 165.745C484.16 163.394 478.92 162.169 473.608 162.164H540.734C546.046 162.169 551.286 163.394 556.051 165.745C560.815 168.096 564.978 171.511 568.219 175.726L568.237 175.744C572.889 181.805 575.408 189.237 575.4 196.882Z" fill="#0AA1DD"/>
<path opacity="0.1" d="M575.4 196.882C575.402 205.066 572.517 212.988 567.255 219.25C561.993 225.512 554.692 229.711 546.639 231.107L540.333 314.617C539.787 321.718 534.647 327.158 528.487 327.158H461.36C467.521 327.158 472.661 321.718 473.207 314.617L476.579 270.042L479.513 231.107C484.789 230.197 489.781 228.074 494.098 224.903C498.416 221.732 501.939 217.601 504.391 212.836C504.719 212.233 505.011 211.594 505.284 210.955C507.266 206.53 508.285 201.732 508.273 196.882C508.273 194.502 508.029 192.129 507.544 189.799C507.362 188.868 507.125 187.938 506.87 187.043C505.649 182.959 503.697 179.131 501.111 175.744L501.092 175.726C497.852 171.511 493.689 168.097 488.924 165.745C484.16 163.394 478.92 162.169 473.608 162.164H540.734C546.046 162.169 551.286 163.394 556.051 165.745C560.815 168.096 564.978 171.511 568.219 175.726L568.237 175.744C572.889 181.805 575.408 189.237 575.4 196.882Z" fill="#333333"/>
<path d="M508.28 196.885C508.28 214.035 497.011 228.317 482.203 231.103L476.487 314.613C475.995 321.72 471.338 327.162 465.74 327.162H286.503C280.92 327.162 276.263 321.72 275.755 314.613L270.024 230.971C255.516 227.921 244.544 213.821 244.544 196.885C244.509 189.777 246.52 182.809 250.336 176.815C253.233 172.248 257.219 168.474 261.934 165.832C266.224 163.422 271.061 162.156 275.98 162.155C283.752 162.214 291.193 165.315 296.712 170.796C301.141 175.137 304.339 180.577 305.982 186.561C306.064 186.802 306.124 187.051 306.161 187.303C306.57 189.127 306.84 190.979 306.967 192.844L307.37 198.649V198.666L312.251 270.038H439.992L445.275 192.845C446.037 181.944 451.336 172.858 458.694 168.554C463.348 164.837 469.025 162.633 474.964 162.238C475.589 162.178 476.217 162.15 476.845 162.155C481.617 162.151 486.313 163.347 490.503 165.635C490.635 165.694 490.765 165.76 490.891 165.833C495.227 168.252 498.95 171.637 501.772 175.727L501.787 175.744C506.053 181.963 508.319 189.34 508.28 196.885V196.885Z" fill="#0AA1DD"/>
<path opacity="0.1" d="M437.035 327.162H286.502C280.92 327.162 276.263 321.72 275.755 314.613L270.024 230.971C255.515 227.921 244.544 213.821 244.544 196.885C244.509 189.777 246.52 182.809 250.336 176.815C253.233 172.248 257.219 168.474 261.934 165.832C266.224 163.422 271.06 162.156 275.98 162.155C283.752 162.214 291.193 165.315 296.712 170.796C301.14 175.137 304.339 180.577 305.981 186.561C306.064 186.802 306.124 187.051 306.161 187.303C306.57 189.127 306.839 190.979 306.967 192.844L307.37 198.649V198.666L312.251 270.038H439.992L437.035 327.162Z" fill="#FDFEFF"/>
<path d="M391.212 356.656L376.608 360.708L363.511 326.339L378.102 322.285L391.212 356.656Z" fill="#FFC3BD"/>
<path d="M370.071 356.144C371.227 354.649 372.893 353.634 374.751 353.296L389.791 350.369C390.127 350.29 390.481 350.341 390.781 350.512C391.081 350.683 391.305 350.962 391.408 351.292L396.06 365.026C396.324 365.778 396.279 366.606 395.935 367.325C395.59 368.044 394.975 368.597 394.223 368.862L394.124 368.895C388.582 371.083 384.833 370.329 376.161 372.008C370.821 373.051 359.6 376.609 352.104 376.302C344.608 375.995 344.629 368.566 347.781 368.02C358.968 366.261 367.529 359.53 370.071 356.144Z" fill="#263238"/>
<g opacity="0.2">
<path opacity="0.2" d="M363.509 326.351L370.264 344.071L384.868 340.005L378.114 322.287L363.509 326.351Z" fill="#333333"/>
</g>
<path d="M412.219 195.98C412.219 195.98 324.33 195.499 327.073 224.982C328.925 244.885 338.47 265.827 345.916 286.033C356.707 315.32 366.065 340.836 366.065 340.836L386.094 333.897C386.094 333.897 368.108 249.191 355.985 240.525H430.299C454.89 240.525 465.522 213.475 441.58 181.947C426.945 181.961 412.219 195.98 412.219 195.98Z" fill="#0AA1DD"/>
<path opacity="0.6" d="M412.219 195.98C412.219 195.98 324.33 195.499 327.073 224.982C325.71 243.296 366.065 340.836 366.065 340.836L386.094 333.897C386.094 333.897 368.108 249.191 355.985 240.525H430.299C454.89 240.525 465.522 213.475 441.58 181.947C426.945 181.961 412.219 195.98 412.219 195.98Z" fill="#333333"/>
<path d="M350.241 142.384C361.05 152.282 382.297 128.869 385.711 126.081C393.041 120.095 414.574 99.9578 413.434 92.9679C410.078 72.3883 376.339 101.542 366.61 121.625L350.241 142.384Z" fill="#263238"/>
<path d="M444.896 80.4958C450.315 81.6504 456.185 79.6866 459.998 83.7135C463.81 87.7403 465.407 93.4047 465.962 98.9259C466.441 106.635 466.039 114.374 464.764 121.993C463.571 131.273 462.378 140.554 461.185 149.834C460.419 157.479 460.712 165.193 462.056 172.757L462.066 172.805C462.206 173.608 462.076 174.436 461.696 175.157C461.317 175.879 460.709 176.455 459.968 176.794C459.968 176.794 417.887 178.247 405.654 177.782C399.147 177.534 403.61 160.405 401.618 150.415C401.176 148.199 396.818 139.041 396.177 136.694C393.155 125.632 395.158 118.035 397.961 106.916C399.994 98.8482 400.83 87.2056 404.94 86.3123C412.256 84.7221 429.793 77.2781 444.896 80.4958Z" fill="#0AA1DD"/>
<path opacity="0.8" d="M444.896 80.4958C450.315 81.6504 456.185 79.6866 459.998 83.7135C463.81 87.7403 465.407 93.4047 465.962 98.9259C466.441 106.635 466.039 114.374 464.764 121.993C463.571 131.273 462.378 140.554 461.185 149.834C460.419 157.479 460.712 165.193 462.056 172.757L462.066 172.805C462.206 173.608 462.076 174.436 461.696 175.157C461.317 175.879 460.709 176.455 459.968 176.794C459.968 176.794 417.887 178.247 405.654 177.782C399.147 177.534 403.61 160.405 401.618 150.415C401.176 148.199 396.818 139.041 396.177 136.694C393.155 125.632 395.158 118.035 397.961 106.916C399.994 98.8482 400.83 87.2056 404.94 86.3123C412.256 84.7221 429.793 77.2781 444.896 80.4958Z" fill="#FDFEFF"/>
<path d="M450.91 88.4043C451.468 87.5513 466.265 75.07 468.96 89.489C472.711 109.557 464.953 129.307 464.953 129.307C464.953 129.307 463.171 151.028 456.88 153.193C450.589 155.358 444.585 155.899 442.465 152.187C441.093 149.285 440.369 146.118 440.345 142.907C440.345 142.907 441.099 103.399 450.91 88.4043Z" fill="#263238"/>
<path d="M440.657 52.9514C439.124 62.1937 437.837 79.077 444.439 85.0258C444.439 85.0258 428.323 93.4741 417.756 108.21C415.408 106.455 413.672 104.005 412.794 101.207C411.915 98.4084 411.939 95.4042 412.861 92.6201C413.384 90.8655 414.254 89.2345 415.421 87.8245C416.587 86.4144 418.025 85.2543 419.649 84.4133C425.905 80.964 425.307 74.5118 423.591 68.442L440.657 52.9514Z" fill="#E8BFBF"/>
<path opacity="0.2" d="M438.552 68.6372L432.544 70.9459C429.97 71.9345 427.221 72.3807 424.468 72.2565V72.2565C424.891 74.1377 424.891 76.0897 424.468 77.9709C426.615 78.554 428.885 78.5021 431.004 77.8215C433.122 77.141 434.999 75.8608 436.407 74.1356C437.392 72.4203 438.115 70.5669 438.552 68.6372Z" fill="#333333"/>
<path d="M289.432 327.103H273.083L290.212 286.021L301.3 304.882L289.432 327.103Z" fill="#FFC3BD"/>
<path d="M274.423 323.222L293.613 318.857C293.94 318.77 294.288 318.81 294.587 318.97C294.886 319.129 295.114 319.395 295.224 319.716L300.575 334.496C300.683 334.868 300.717 335.257 300.674 335.642C300.632 336.027 300.514 336.4 300.328 336.74C300.141 337.079 299.89 337.378 299.588 337.621C299.286 337.863 298.939 338.043 298.568 338.151C298.538 338.16 298.508 338.168 298.477 338.176C291.75 339.583 288.442 339.922 280.004 341.841C274.808 343.021 261.664 346.477 254.5 348.106C247.336 349.735 245.447 342.702 248.301 341.368C261.097 335.435 268.034 329.762 271.752 324.929C272.414 324.064 273.36 323.46 274.423 323.222V323.222Z" fill="#263238"/>
<g opacity="0.2">
<path opacity="0.2" d="M290.212 286.034L282.92 303.528L297.629 311.757L301.3 304.896L290.212 286.034Z" fill="#333333"/>
</g>
<path d="M462.389 176.937L464.157 182.521C464.391 182.951 463.897 183.406 463.169 183.432L399.781 185.359C399.209 185.359 398.741 185.111 398.689 184.747L397.961 179.136C397.961 178.746 398.39 178.407 399.001 178.382L461.285 176.495C461.491 176.463 461.703 176.487 461.897 176.564C462.092 176.642 462.261 176.771 462.389 176.937V176.937Z" fill="#263238"/>
<path d="M383.179 222.786C404.007 231.674 426.607 240.564 438.89 240.564C463.494 240.564 485.349 222.772 462.051 182.312C447.416 182.26 421.967 182.728 421.967 182.728C421.967 182.728 373.978 169.093 339.172 173.067C330.899 174.026 323.145 177.592 317.028 183.252C310.91 188.911 306.747 196.371 305.138 204.554C296.303 249.078 282.7 297.306 282.7 297.306L300.206 309.243C300.206 309.243 327.502 251.759 343.215 206.146C351.523 208.811 366.803 215.798 383.179 222.786Z" fill="#0AA1DD"/>
<path opacity="0.5" d="M305.138 204.554C306.747 196.371 310.91 188.911 317.027 183.252C323.145 177.592 330.899 174.026 339.172 173.067C373.978 169.093 421.967 182.728 421.967 182.728C421.967 182.728 447.416 182.26 462.051 182.312C485.728 222.633 463.494 240.564 438.89 240.564C426.607 240.564 404.007 231.674 383.179 222.786C366.802 215.798 351.523 208.811 343.216 206.146C327.502 251.759 300.207 309.243 300.207 309.243L282.699 297.306C282.699 297.306 296.303 249.078 305.138 204.554Z" fill="#333333"/>
<path d="M327.067 224.987C327.627 230.713 328.486 236.405 329.641 242.04C329.719 241.858 329.797 241.688 329.862 241.506C329.888 241.455 329.901 241.415 329.927 241.363C330.005 241.18 330.057 240.986 330.148 240.816C334.814 229.23 339.363 217.346 343.21 206.164C343.171 206.175 343.132 206.188 343.093 206.203V206.19C333.059 210.447 326.275 216.461 327.067 224.987Z" fill="#0AA1DD"/>
<path opacity="0.6" d="M327.067 224.987C327.627 230.713 328.486 236.405 329.641 242.04C329.719 241.858 329.797 241.688 329.862 241.506C329.888 241.455 329.901 241.415 329.927 241.363C330.005 241.18 330.057 240.986 330.148 240.816C334.814 229.23 339.363 217.346 343.21 206.164C343.171 206.175 343.132 206.188 343.093 206.203V206.19C333.059 210.447 326.275 216.461 327.067 224.987Z" fill="#333333"/>
<path d="M451.897 38.5482C450.685 53.8733 450.497 60.3815 442.607 68.1134C430.728 79.7813 412.226 74.8753 408.847 59.4911C405.808 45.6557 408.305 22.9133 423.405 17.0951C426.73 15.7933 430.332 15.3648 433.871 15.8504C437.409 16.3359 440.765 17.7193 443.62 19.869C446.476 22.0188 448.735 24.8635 450.183 28.1329C451.632 31.4023 452.222 34.9876 451.897 38.5482Z" fill="#E8BFBF"/>
<path d="M426.305 43.4521C426.281 44.7628 425.607 45.7076 424.781 45.6864C423.956 45.6651 423.37 44.6514 423.347 43.398C423.323 42.1446 424.047 41.1556 424.871 41.1637C425.695 41.1718 426.322 42.2074 426.305 43.4521Z" fill="#263238"/>
<path d="M412.223 42.8354C412.213 44.1447 411.525 45.0907 410.713 45.0676C409.901 45.0446 409.302 44.0326 409.279 42.7791C409.255 41.5255 409.978 40.5365 410.789 40.5468C411.599 40.5572 412.254 41.5893 412.223 42.8354Z" fill="#263238"/>
<path d="M411.176 40.6251L408.194 39.6969C408.194 39.6969 409.664 42.0733 411.176 40.6251Z" fill="#263238"/>
<path d="M417.591 44.2285C416.43 47.0563 414.889 49.7122 413.011 52.1228C413.639 52.5857 414.362 52.9031 415.127 53.052C415.892 53.201 416.681 53.1777 417.436 52.9838L417.591 44.2285Z" fill="#ED847E"/>
<path d="M463.53 45.4166C463.182 48.2068 463.112 51.0252 463.322 53.8297C463.896 56.5501 465.461 58.9593 467.713 60.5869C469.965 62.2146 472.741 62.9436 475.5 62.6316C473.357 63.8651 470.855 64.3194 468.415 63.9176C465.975 63.5157 463.749 62.2824 462.112 60.4263C464.305 63.44 467.568 65.4981 471.229 66.1768C468.929 66.8185 466.512 66.9211 464.165 66.4765C461.818 66.0319 459.605 65.0521 457.697 63.613C459.021 65.4155 460.345 67.2181 461.669 69.0207C457.105 67.6978 452.975 65.1791 449.706 61.7246C448.378 60.3165 447.137 58.3341 447.904 56.5576C448.597 54.9523 450.542 54.4028 452.221 53.9167C453.899 53.4305 455.813 52.4977 456.011 50.7593C456.202 49.0865 454.652 47.744 453.146 46.9939C451.64 46.2438 449.9 45.6472 449.033 44.2035C448.51 43.1238 448.274 41.9271 448.349 40.7297L448.135 30.9758C448.044 29.8388 448.153 28.6948 448.457 27.5959C450.455 21.7473 456.064 28.0377 457.949 30.1878C461.64 34.3909 463.631 39.8224 463.53 45.4166V45.4166Z" fill="#263238"/>
<path d="M452.893 58.2575C450.958 60.79 448.099 62.4503 444.943 62.8739C440.75 63.3933 439.276 59.4876 440.957 55.8572C442.475 52.5827 446.486 48.3814 450.442 49.4855C454.397 50.5896 455.247 55.1054 452.893 58.2575Z" fill="#E8BFBF"/>
<path d="M423.407 33.5149C423.473 33.6628 423.583 33.7864 423.723 33.8682C423.862 33.95 424.024 33.986 424.185 33.971C427.715 33.7077 430.651 37.2034 430.671 37.2335C430.734 37.3116 430.813 37.3765 430.901 37.4244C430.99 37.4722 431.087 37.5021 431.187 37.5123C431.287 37.5225 431.388 37.5129 431.484 37.4839C431.58 37.4549 431.67 37.4072 431.748 37.3435C431.825 37.2797 431.89 37.2013 431.937 37.1125C431.984 37.0238 432.014 36.9265 432.024 36.8263C432.033 36.7261 432.023 36.625 431.994 36.5287C431.965 36.4324 431.916 36.3429 431.852 36.2652C431.672 36.1594 428.381 32.1205 424.077 32.4329C423.876 32.4505 423.69 32.546 423.559 32.6992C423.427 32.8524 423.361 33.051 423.374 33.2526C423.365 33.3414 423.376 33.4311 423.407 33.5149Z" fill="#263238"/>
<path d="M413.706 32.5675C413.811 32.5193 413.925 32.494 414.04 32.4934C414.155 32.4929 414.269 32.517 414.374 32.5642C414.614 32.7169 415.304 32.9005 415.007 33.1659C413.268 34.7479 410.928 37.1758 408.689 37.4106C408.311 37.4329 407.363 37.3493 407.481 37.0437C407.566 36.875 407.694 36.7315 407.851 36.6273C408.008 36.5231 408.19 36.4618 408.379 36.4495C410.155 36.2372 411.99 34.0232 413.358 32.7699C413.463 32.6854 413.581 32.6172 413.706 32.5675V32.5675Z" fill="#263238"/>
<path d="M425.232 41.2447L422.251 40.3293C422.251 40.3293 423.745 42.6902 425.232 41.2447Z" fill="#263238"/>
<path d="M417.643 12.0116C423.015 9.47037 423.632 8.90403 429.457 7.72459C435.288 6.37177 441.393 6.81685 446.97 9.00135C452.286 11.4317 456.671 15.5253 459.465 20.6656C462.227 25.7909 463.894 31.4346 464.361 37.238C464.888 39.9254 464.415 42.7123 463.03 45.0726C462.037 42.1493 460.74 39.3385 459.16 36.6865C457.562 34.0201 455.166 31.9252 452.312 30.6997C451.108 30.4095 449.986 29.847 449.032 29.0553C448.421 28.1844 447.949 27.2235 447.634 26.2073C446.501 24.0271 444.575 22.3659 442.254 21.5675C439.953 20.7883 437.573 20.2709 435.157 20.0252C427.397 18.8792 419.343 19.1979 411.845 16.8874C413.573 15.0322 415.52 13.3949 417.643 12.0116V12.0116Z" fill="#263238"/>
<path d="M452.429 26.4369C451.406 28.6776 449.681 30.5228 447.515 31.6928C444.942 33.0591 438.042 34.744 437.438 34.1326C436.717 33.402 437.203 25.1608 439.855 23.9542C438.436 26.3189 436.531 28.3545 434.267 29.9261C431.573 31.2399 428.646 32.0094 425.654 32.1905C424.124 32.237 425.753 25.348 427.655 22.9879C420.929 26.3872 413.856 30.1013 409.958 36.5575C405.949 43.1978 406.087 51.6771 408.36 59.0996C406.884 58.4512 405.575 57.4727 404.534 56.2393C403.493 55.0059 402.749 53.5503 402.357 51.9843C402.144 56.1979 402.781 60.412 404.23 64.3749C405.679 68.3378 407.91 71.9683 410.791 75.0495C401.543 70.856 395.795 60.7344 395.214 50.5875C394.633 40.4406 398.637 30.4297 404.642 22.241C409.777 15.2387 416.665 9.18863 424.993 6.74635C435.976 3.52616 459.697 10.5878 452.429 26.4369Z" fill="#263238"/>
<path d="M446.299 78.3275C446.232 77.7619 446.165 77.0218 446.097 76.2184C445.943 74.4103 446.466 72.6095 447.565 71.1666C448.664 69.7237 450.259 68.742 452.041 68.4125L452.133 68.3953C452.662 68.299 453.156 68.0636 453.564 67.7134C453.972 67.3631 454.279 66.9106 454.455 66.402C455.784 62.5629 456.292 61.3993 457.564 57.6242C461.023 56.7916 465.098 58.0679 468.684 58.4546C469.676 62.7541 469.743 67.2158 468.881 71.5433C468.755 72.518 468.378 73.443 467.785 74.2264C464.54 76.892 460.949 79.1064 457.112 80.8099C453.941 81.757 449.594 78.6345 446.299 78.3275Z" fill="#E8BFBF"/>
<path d="M456.667 80.9085C456.667 80.9085 466.094 141.832 456.384 151.118C450.675 156.577 445.748 153.565 442.656 150.155C441.53 148.886 440.683 147.394 440.17 145.776C439.658 144.158 439.491 142.45 439.681 140.763L446.299 78.3267C446.299 78.3267 452.842 74.5247 456.667 80.9085Z" fill="#E8BFBF"/>
<path d="M355.364 135.881C352.59 133.782 350.378 131.028 348.925 127.865C347.472 124.701 346.823 121.227 347.036 117.751C347.13 106.715 350.236 86.4799 350.236 86.4799L359.194 83.5164C359.194 83.5164 361.979 98.9108 362.595 107.372C362.714 109.035 362.903 110.993 363.103 113.058C363.505 116.826 363.987 120.983 364.416 124.416L355.364 135.881Z" fill="#E8BFBF"/>
<path d="M350.236 142.385C347.491 139.864 347.023 136.82 345.604 130.316C344.252 124.175 345.778 116.679 347.036 117.751C347.193 117.9 347.312 118.084 347.384 118.288C349.553 123.424 358.015 118.918 360.412 116.357C361.438 115.369 362.341 114.261 363.104 113.058C363.427 112.604 363.607 112.064 363.619 111.506C363.63 110.949 363.474 110.401 363.17 109.934C365.768 108.861 367.857 119.106 366.612 121.627L365.977 123.524C364.945 126.613 363.35 129.483 361.272 131.989L356.567 137.665L350.236 142.385Z" fill="#263238"/>
<path d="M359.426 84.827L360.496 69.1738C357.698 70.4872 354.812 71.6013 351.858 72.5076C347.5 73.991 341.639 71.3724 342.946 74.202C345.132 78.4351 347.566 82.5351 350.236 86.4805L359.426 84.827Z" fill="#E8BFBF"/>
<path d="M360.496 69.1737L353.829 53.4888L345.075 58.8559C342.663 64.0971 342.946 74.2015 342.946 74.2015C342.946 74.2015 355.079 74.7527 360.496 69.1737Z" fill="#E8BFBF"/>
<path d="M422.822 59.8189C422.893 60.9616 422.326 61.9213 421.579 61.9534C420.831 61.9856 420.189 61.0966 420.134 59.9499C420.079 58.8031 420.634 57.8631 421.382 57.8313C422.13 57.7995 422.784 58.7341 422.822 59.8189Z" fill="#263238"/>
<path d="M439.992 270.038L445.275 192.845C446.036 181.944 451.335 172.858 458.694 168.554C463.348 164.837 469.025 162.633 474.964 162.238C475.589 162.178 476.217 162.15 476.845 162.155C481.617 162.151 486.313 163.347 490.502 165.635C490.635 165.694 490.765 165.76 490.891 165.833C495.227 168.252 498.95 171.637 501.772 175.727L501.787 175.744C506.053 181.963 508.319 189.34 508.28 196.885C508.28 214.036 497.011 228.317 482.203 231.104L476.487 314.613C475.995 321.721 471.338 327.163 465.74 327.163H437.036L439.992 270.038Z" fill="#0AA1DD"/>
<path opacity="0.1" d="M439.992 270.038L445.275 192.845C446.036 181.944 451.335 172.858 458.694 168.554C463.348 164.837 469.025 162.633 474.964 162.238C475.589 162.178 476.217 162.15 476.845 162.155C481.617 162.151 486.313 163.347 490.502 165.635C490.635 165.694 490.765 165.76 490.891 165.833C495.227 168.252 498.95 171.637 501.772 175.727L501.787 175.744C506.053 181.963 508.319 189.34 508.28 196.885C508.28 214.036 497.011 228.317 482.203 231.104L476.487 314.613C475.995 321.721 471.338 327.163 465.74 327.163H437.036L439.992 270.038Z" fill="#FDFEFF"/>
<path d="M235.427 410.947C203.726 410.947 178.027 404.364 178.027 396.245C178.027 388.125 203.726 381.542 235.427 381.542C267.129 381.542 292.828 388.125 292.828 396.245C292.828 404.364 267.129 410.947 235.427 410.947Z" fill="#333333"/>
<path opacity="0.3" d="M235.427 406.06C203.726 406.06 178.027 400.571 178.027 393.801C178.027 387.031 203.726 381.542 235.427 381.542C267.129 381.542 292.828 387.031 292.828 393.801C292.828 400.571 267.129 406.06 235.427 406.06Z" fill="#E0E0E0"/>
<path d="M230.692 393.785H240.163L251.124 275.489H219.731L230.692 393.785Z" fill="#333333"/>
<path d="M219.731 275.488C219.731 278.933 226.758 281.727 235.427 281.727C244.096 281.727 251.124 278.933 251.124 275.488C251.124 272.043 244.096 269.25 235.427 269.25C226.759 269.25 219.731 272.042 219.731 275.488Z" fill="#263238"/>
<path opacity="0.7" d="M219.731 275.488C219.731 278.933 226.758 281.727 235.427 281.727C244.096 281.727 251.124 278.933 251.124 275.488C251.124 272.043 244.096 269.25 235.427 269.25C226.759 269.25 219.731 272.042 219.731 275.488Z" fill="#FDFEFF"/>
<path opacity="0.7" d="M427.302 277.338C427.26 276.63 427.075 275.938 426.761 275.302C426.446 274.666 426.008 274.1 425.471 273.636C412.209 287.005 328.063 297.305 226.24 297.305C124.417 297.305 40.2712 287.005 26.9914 273.636C26.4548 274.1 26.0162 274.666 25.7017 275.302C25.3873 275.938 25.2031 276.63 25.1603 277.338C25.1603 292.438 115.193 304.692 226.24 304.692C337.287 304.692 427.302 292.438 427.302 277.338Z" fill="#FDFEFF"/>
<path opacity="0.7" d="M425.471 280.75C412.208 267.382 328.063 257.098 226.24 257.098C124.416 257.098 40.271 267.382 26.9912 280.75C40.271 294.119 124.416 304.419 226.24 304.419C328.063 304.419 412.208 294.119 425.471 280.75Z" fill="#FDFEFF"/>
<path opacity="0.7" d="M427.302 276.807C427.302 261.69 337.287 249.453 226.24 249.453C115.193 249.453 25.1603 261.69 25.1603 276.807C25.2017 277.513 25.3853 278.203 25.7 278.837C26.0146 279.47 26.4539 280.033 26.9914 280.492C40.2712 267.123 124.417 256.84 226.24 256.84C328.063 256.84 412.209 267.123 425.471 280.492C426.009 280.033 426.448 279.47 426.763 278.837C427.077 278.203 427.261 277.513 427.302 276.807Z" fill="#FDFEFF"/>
<path d="M248.417 263.485L164.295 261.896C163.84 261.842 163.423 261.612 163.136 261.253C162.848 260.895 162.713 260.438 162.759 259.981V259.981C162.736 259.521 162.892 259.069 163.195 258.723C163.499 258.377 163.925 258.162 164.384 258.126L248.505 259.716C248.961 259.769 249.378 259.999 249.665 260.357C249.953 260.716 250.088 261.173 250.042 261.63V261.63C250.065 262.09 249.909 262.542 249.606 262.888C249.302 263.234 248.876 263.449 248.417 263.485V263.485Z" fill="#263238"/>
<path opacity="0.2" d="M248.417 263.485L164.295 261.896C163.84 261.842 163.423 261.612 163.136 261.253C162.848 260.895 162.713 260.438 162.759 259.981V259.981C162.736 259.521 162.892 259.069 163.195 258.723C163.499 258.377 163.925 258.162 164.384 258.126L248.505 259.716C248.961 259.769 249.378 259.999 249.665 260.357C249.953 260.716 250.088 261.173 250.042 261.63V261.63C250.065 262.09 249.909 262.542 249.606 262.888C249.302 263.234 248.876 263.449 248.417 263.485V263.485Z" fill="#FDFEFF"/>
<path d="M289.276 257.338L249.056 263.426C248.832 263.441 248.608 263.409 248.397 263.334C248.186 263.259 247.993 263.141 247.829 262.988C247.665 262.835 247.534 262.65 247.444 262.445C247.354 262.24 247.306 262.018 247.305 261.794C247.233 261.332 247.336 260.86 247.593 260.471C247.85 260.081 248.243 259.802 248.695 259.687L288.917 253.598C289.14 253.583 289.364 253.615 289.575 253.69C289.786 253.766 289.979 253.883 290.143 254.036C290.307 254.189 290.438 254.374 290.528 254.579C290.618 254.784 290.666 255.006 290.667 255.23V255.23C290.739 255.692 290.636 256.164 290.379 256.554C290.122 256.943 289.728 257.223 289.276 257.338V257.338Z" fill="#263238"/>
<path d="M288.917 253.597H203.888L164.384 258.127L246.212 259.673L288.917 253.597Z" fill="#263238"/>
<path opacity="0.6" d="M288.917 253.597H203.888L164.384 258.127L246.212 259.673L288.917 253.597Z" fill="#FDFEFF"/>
<path opacity="0.5" d="M289.276 257.338L249.056 263.426C248.832 263.441 248.608 263.409 248.397 263.334C248.186 263.259 247.993 263.141 247.829 262.988C247.665 262.835 247.534 262.65 247.444 262.445C247.354 262.24 247.306 262.018 247.305 261.794C247.233 261.332 247.336 260.86 247.593 260.471C247.85 260.081 248.243 259.802 248.695 259.687L288.917 253.598C289.14 253.583 289.364 253.615 289.575 253.69C289.786 253.766 289.979 253.883 290.143 254.036C290.307 254.189 290.438 254.374 290.528 254.579C290.618 254.784 290.666 255.006 290.667 255.23V255.23C290.739 255.692 290.636 256.164 290.379 256.554C290.122 256.943 289.728 257.223 289.276 257.338V257.338Z" fill="#FDFEFF"/>
<path d="M246.213 259.672L167.772 258.19C166.29 258.005 164.928 257.281 163.945 256.155C162.961 255.029 162.426 253.581 162.44 252.085L160.076 204.656C159.911 201.35 162.041 198.688 164.809 198.741L243.249 200.223C244.731 200.408 246.093 201.132 247.077 202.258C248.06 203.384 248.596 204.832 248.582 206.328L250.946 253.757C251.111 257.062 248.981 259.725 246.213 259.672Z" fill="#0AA1DD"/>
<path opacity="0.2" d="M246.213 259.672L167.772 258.19C166.29 258.005 164.928 257.281 163.945 256.155C162.961 255.029 162.426 253.581 162.44 252.085L160.076 204.656C159.911 201.35 162.041 198.688 164.809 198.741L243.249 200.223C244.731 200.408 246.093 201.132 247.077 202.258C248.06 203.384 248.596 204.832 248.582 206.328L250.946 253.757C251.111 257.062 248.981 259.725 246.213 259.672Z" fill="#FDFEFF"/>
<path d="M243.91 259.425L165.47 257.943C163.988 257.758 162.625 257.033 161.642 255.908C160.659 254.782 160.123 253.333 160.137 251.838L157.773 204.408C157.608 201.103 159.738 198.441 162.506 198.493L240.947 199.975C242.429 200.16 243.791 200.885 244.774 202.01C245.757 203.136 246.293 204.585 246.279 206.08L248.643 253.51C248.808 256.816 246.678 259.477 243.91 259.425Z" fill="#0AA1DD"/>
<path opacity="0.6" d="M243.91 259.425L165.47 257.943C163.988 257.758 162.625 257.033 161.642 255.908C160.659 254.782 160.123 253.333 160.137 251.838L157.773 204.408C157.608 201.103 159.738 198.441 162.506 198.493L240.947 199.975C242.429 200.16 243.791 200.885 244.774 202.01C245.757 203.136 246.293 204.585 246.279 206.08L248.643 253.51C248.808 256.816 246.678 259.477 243.91 259.425Z" fill="#FDFEFF"/>
<path d="M202.523 239H209L202.478 218H196L202.523 239Z" fill="white"/>
<path d="M214 231L212.081 226H191L192.919 231H214Z" fill="white"/>
</svg>
