<svg width="691" height="628" viewBox="0 0 691 628" fill="none" xmlns="http://www.w3.org/2000/svg">
<g clip-path="url(#clip0_77_661)">
<path d="M16.5292 578.292H73.2117V578.72H16.5292V578.292Z" fill="#EBEBEB"/>
<path d="M219.63 582.942H234.507V583.371H219.63V582.942Z" fill="#EBEBEB"/>
<path d="M74.9246 562.376H107.769V562.804H74.9246V562.376Z" fill="#EBEBEB"/>
<path d="M622.761 565.256H696.679V565.684H622.761V565.256Z" fill="#EBEBEB"/>
<path d="M596.687 565.256H607.525V565.684H596.687V565.256Z" fill="#EBEBEB"/>
<path d="M401.155 572.492H561.464V572.921H401.155V572.492Z" fill="#EBEBEB"/>
<path d="M-69.2055 550.704H786.453V551.133H-69.2055V550.704Z" fill="#EBEBEB"/>
<path d="M6.67425 17.6323H128.612V431.905H6.67425V17.6323Z" fill="#FDFEFF"/>
<path d="M126.738 174.047H146.256V193.595H126.738V174.047Z" fill="#FDFEFF"/>
<path opacity="0.1" d="M6.91528 17.6323H128.853V431.905H6.91528V17.6323Z" fill="#FDFEFF"/>
<g opacity="0.3">
<path opacity="0.3" d="M18.8451 17.6318H57.7211L100.252 431.905H61.3764L18.8451 17.6318Z" fill="#FDFEFF"/>
</g>
<path d="M5.6535 12.3792H129.633V22.8853H5.6535V12.3792Z" fill="#E0E0E0"/>
<path d="M5.6535 428.281H129.633V438.787H5.6535V428.281Z" fill="#EBEBEB"/>
<path d="M0.833801 447.743H135.243V2.11719H0.833801V447.743ZM124.997 437.482H11.08V12.3791H124.997V437.482Z" fill="#EBEBEB"/>
<path d="M139.67 17.6323H261.608V431.905H139.67V17.6323Z" fill="#FDFEFF"/>
<path opacity="0.1" d="M140.066 17.6321H262.003V431.904H140.066V17.6321Z" fill="#FDFEFF"/>
<g opacity="0.3">
<path opacity="0.3" d="M151.842 17.6318H190.718L233.247 431.905H194.371L151.842 17.6318Z" fill="#FDFEFF"/>
</g>
<path d="M138.649 12.3792H262.628V22.8853H138.649V12.3792Z" fill="#E0E0E0"/>
<path d="M138.65 428.281H262.629V438.787H138.65V428.281Z" fill="#EBEBEB"/>
<path d="M133.83 447.743H268.239V2.11719H133.83V447.743ZM257.993 437.482H144.076V12.3791H257.993V437.482Z" fill="#EBEBEB"/>
<path d="M369.71 503.08L371.081 503.249C371.167 502.552 379.485 432.828 362.325 375.851C345.269 319.221 357.013 283.136 357.134 282.779L355.825 282.336C355.703 282.698 343.82 319.202 361.002 376.251C378.077 432.944 369.796 502.385 369.71 503.08Z" fill="#E0E0E0"/>
<path d="M354.688 290.544C357.674 286.98 361.728 284.477 366.249 283.406L365.934 282.058C361.122 283.198 356.805 285.863 353.627 289.657L354.688 290.544Z" fill="#E0E0E0"/>
<path d="M348.815 296.335L352.768 298.572L352.089 299.776L348.136 297.539L348.815 296.335Z" fill="#E0E0E0"/>
<path d="M356.174 328.458C359.623 320.604 365.997 314.41 373.94 311.195L373.426 309.91C365.148 313.262 358.503 319.718 354.907 327.904L356.174 328.458Z" fill="#E0E0E0"/>
<path d="M359.879 372.018L361.26 372.036C361.306 369.231 361.971 366.472 363.207 363.955C364.443 361.439 366.219 359.227 368.408 357.478L367.551 356.393C365.201 358.27 363.294 360.644 361.968 363.345C360.642 366.047 359.928 369.008 359.879 372.018Z" fill="#E0E0E0"/>
<path d="M362.96 383.156L364.246 382.649C363.538 380.884 362.475 379.284 361.124 377.948C359.772 376.612 358.16 375.569 356.389 374.884L355.899 376.178C357.491 376.794 358.939 377.731 360.154 378.932C361.369 380.132 362.324 381.57 362.96 383.156Z" fill="#E0E0E0"/>
<path d="M371.912 453.825L372.976 452.942C371.296 450.911 370.024 443.182 369.341 439.03C369.178 438.037 369.039 437.19 368.923 436.579L367.566 436.836C367.68 437.439 367.817 438.274 367.978 439.253C368.998 445.454 370.142 451.685 371.912 453.825Z" fill="#E0E0E0"/>
<path d="M372.712 476.016C373.664 473.294 375.454 470.946 377.823 469.307C380.193 467.669 383.02 466.825 385.899 466.898L385.963 465.516C382.784 465.435 379.662 466.367 377.044 468.176C374.427 469.985 372.45 472.579 371.398 475.585L372.712 476.016Z" fill="#E0E0E0"/>
<path d="M362.145 490.464L371.882 501.376L370.852 502.298L361.116 491.386L362.145 490.464Z" fill="#E0E0E0"/>
<path d="M355.271 419.333C353.065 426.485 368.453 440.1 368.453 440.1C368.453 440.1 388.827 437.548 391.033 430.396C393.239 423.245 388.079 411.542 378.203 408.487C368.328 405.432 357.477 412.181 355.271 419.333Z" fill="#F0F0F0"/>
<path d="M338.195 332.539C340.147 340.134 354.721 345.529 354.721 345.529C354.721 345.529 364.881 333.756 362.929 326.162C360.976 318.568 352.921 310.197 346.09 311.958C339.26 313.719 336.242 324.944 338.195 332.539Z" fill="#EBEBEB"/>
<path d="M396.673 446.044C387.522 449.613 381.913 465.822 381.913 465.822C381.913 465.822 396.989 473.964 406.14 470.395C415.291 466.827 424.976 456.772 422.362 450.048C419.747 443.323 405.824 442.476 396.673 446.044Z" fill="#F5F5F5"/>
<path d="M376.609 356.867C374.763 358.425 372.642 359.625 370.356 360.404C369.207 360.778 367.978 360.828 366.802 360.55C365.626 360.273 364.549 359.677 363.688 358.828C361.729 356.571 362.254 353.073 363.488 350.349C365.932 344.953 374.95 335.796 381.876 338.424C391.874 342.216 381.068 353.553 376.609 356.867Z" fill="#E6E6E6"/>
<path d="M356.145 370.617C357.457 372.246 358.849 374.298 358.132 376.263C357.723 377.098 357.049 377.774 356.215 378.184C355.381 378.594 354.435 378.715 353.525 378.527C351.713 378.106 350.021 377.278 348.577 376.104C345.047 373.649 337.811 368.499 342.43 363.681C347.231 358.674 353.38 367.186 356.145 370.617Z" fill="#EBEBEB"/>
<path d="M385.676 302.061C386.436 302.106 387.164 302.389 387.756 302.869C388.347 303.35 388.773 304.005 388.974 304.741C389.275 306.495 387.823 308.029 386.415 309.115C382.91 311.82 372.376 319.121 370.025 312.078C367.804 305.423 381.02 301.547 385.676 302.061Z" fill="#E0E0E0"/>
<path d="M366.257 278.892C368.431 279.099 370.599 278.309 372.778 278.448C374.956 278.586 377.374 280.342 376.89 282.474C376.442 284.445 373.997 285.104 371.983 285.231C368.542 285.447 365.088 285.208 361.709 284.52C360.905 284.449 360.159 284.072 359.624 283.466C358.744 282.166 360.145 280.425 361.644 279.964C363.196 279.77 364.723 279.406 366.196 278.878L366.257 278.892Z" fill="#E6E6E6"/>
<path d="M345.017 293.871C342.835 293.934 340.724 293.003 338.54 292.997C336.357 292.991 333.829 294.583 334.172 296.743C334.488 298.738 336.886 299.558 338.887 299.818C342.306 300.261 345.768 300.251 349.185 299.787C349.992 299.77 350.761 299.443 351.334 298.873C352.299 297.635 351.015 295.805 349.55 295.246C348.013 294.95 346.514 294.485 345.078 293.861L345.017 293.871Z" fill="#F0F0F0"/>
<path d="M347.166 454.913C346.675 454.398 346.019 454.073 345.312 453.995C344.845 454.047 344.41 454.253 344.074 454.581C343.738 454.91 343.521 455.341 343.458 455.806C343.355 456.741 343.475 457.687 343.809 458.566C345.287 463.522 361.898 499.422 365.718 492.975C367.977 489.164 362.426 476.541 360.787 472.969C357.621 466.025 352.971 459.861 347.166 454.913Z" fill="#F0F0F0"/>
<path d="M357.101 280.258C356.035 277.179 354.186 274.431 351.737 272.286C349.117 270.379 344.92 270.235 343.013 272.857C340.88 275.788 343.013 280.242 346.281 281.805C349.55 283.368 353.378 282.897 356.964 282.393C356.993 281.86 357.022 281.326 357.051 280.793L357.101 280.258Z" fill="#E6E6E6"/>
<path d="M345.495 550.972C363.281 553.989 381.446 553.989 399.232 550.972L420.135 489.199H324.592L345.495 550.972Z" fill="#F0F0F0"/>
<path d="M357.62 73.4894C338.023 73.4894 322.137 57.5789 322.137 37.9523C322.137 18.3258 338.023 2.41528 357.62 2.41528C377.217 2.41528 393.103 18.3258 393.103 37.9523C393.103 57.5789 377.217 73.4894 357.62 73.4894Z" fill="#E0E0E0"/>
<path d="M324.979 42.1586C321.84 22.7854 334.976 4.53165 354.32 1.3878C373.664 -1.75605 391.89 11.4005 395.029 30.7737C398.168 50.1469 385.032 68.4006 365.688 71.5445C346.344 74.6884 328.118 61.5318 324.979 42.1586Z" fill="#EBEBEB"/>
<path opacity="0.8" d="M331.529 36.7024C331.529 42.3428 333.199 47.8565 336.328 52.5463C339.457 57.236 343.904 60.8912 349.108 63.0496C354.311 65.208 360.036 65.7727 365.56 64.6723C371.083 63.5719 376.157 60.8557 380.139 56.8674C384.122 52.879 386.834 47.7975 387.933 42.2655C389.031 36.7335 388.467 30.9994 386.312 25.7883C384.157 20.5773 380.508 16.1232 375.825 12.9895C371.142 9.85574 365.637 8.18303 360.005 8.18286C352.453 8.18286 345.21 11.1876 339.869 16.5361C334.529 21.8845 331.529 29.1386 331.529 36.7024Z" fill="#FDFEFF"/>
<path d="M361.543 39.3939C361.946 38.9895 362.221 38.4742 362.333 37.9132C362.444 37.3522 362.387 36.7707 362.169 36.2423C361.95 35.7139 361.58 35.2622 361.105 34.9444C360.63 34.6266 360.072 34.457 359.501 34.457C358.93 34.457 358.372 34.6266 357.897 34.9444C357.422 35.2622 357.052 35.7139 356.833 36.2423C356.615 36.7707 356.558 37.3522 356.669 37.9132C356.78 38.4742 357.055 38.9895 357.459 39.3939C358.001 39.9361 358.735 40.2408 359.501 40.2408C360.267 40.2408 361.001 39.9361 361.543 39.3939Z" fill="#E0E0E0"/>
<path d="M360.018 36.3621L343.201 35.8513L343.148 37.5892L358.384 38.052L360.023 64.5903L361.755 64.4823L360.018 36.3621Z" fill="#E0E0E0"/>
<path d="M358.623 627.174C175.372 627.174 26.8172 618.485 26.8172 607.767C26.8172 597.048 175.372 588.359 358.623 588.359C541.874 588.359 690.429 597.048 690.429 607.767C690.429 618.485 541.874 627.174 358.623 627.174Z" fill="#F5F5F5"/>
<path d="M605.36 125.295V188.837C605.359 190.429 604.728 191.956 603.604 193.081C602.48 194.207 600.956 194.84 599.366 194.841H534.311L511.094 212.82C510.435 213.318 509.65 213.622 508.828 213.698C508.006 213.774 507.179 213.618 506.441 213.248C505.703 212.878 505.082 212.309 504.649 211.605C504.217 210.901 503.989 210.09 503.992 209.263V194.84H500.365C498.775 194.84 497.251 194.207 496.127 193.081C495.004 191.955 494.372 190.429 494.371 188.837V125.279C494.379 123.694 495.014 122.176 496.138 121.059C497.261 119.942 498.782 119.317 500.365 119.322H599.396C600.978 119.322 602.495 119.951 603.613 121.071C604.732 122.192 605.36 123.711 605.36 125.295V125.295Z" stroke="#0AA1DD" stroke-miterlimit="10"/>
<path d="M544.515 110.377H532.118V111.897H544.515V110.377Z" fill="#0AA1DD"/>
<path d="M486.517 128.281H485V120.788C485.004 118.022 486.104 115.37 488.059 113.415C490.013 111.46 492.663 110.362 495.425 110.362H523.089V111.882H495.425C493.065 111.882 490.802 112.82 489.132 114.49C487.462 116.16 486.521 118.425 486.517 120.788V128.281Z" fill="#0AA1DD"/>
<path d="M574.21 165.873C573.549 165.877 572.895 165.744 572.289 165.482C571.682 165.221 571.136 164.837 570.685 164.354C570.234 163.87 569.888 163.299 569.669 162.675C569.449 162.052 569.36 161.389 569.409 160.73L569.414 160.664C571.034 142.133 585.693 140.437 587.535 119.362C588.064 113.305 585.847 111.004 581.614 111.004C577.38 111.004 574.76 113.305 574.231 119.362L573.928 122.838C573.791 124.402 573.075 125.857 571.919 126.918C570.764 127.978 569.254 128.566 567.687 128.566C566.818 128.566 565.959 128.385 565.163 128.035C564.368 127.685 563.654 127.172 563.067 126.531C562.48 125.889 562.033 125.133 561.754 124.309C561.475 123.485 561.37 122.612 561.445 121.745L561.579 120.209C562.765 106.643 570.093 98.8916 583.035 98.8916C595.976 98.8916 601.949 106.643 600.764 120.209C598.838 142.254 582.82 145.645 581.466 161.15C581.46 161.226 581.453 161.301 581.447 161.377C581.361 162.594 580.819 163.733 579.93 164.567C579.04 165.401 577.869 165.867 576.651 165.873L574.21 165.873ZM580.774 178.761L580.769 178.81C580.63 180.403 579.9 181.887 578.722 182.967C577.545 184.048 576.005 184.647 574.408 184.647C573.523 184.647 572.647 184.463 571.837 184.106C571.026 183.749 570.299 183.227 569.701 182.573C569.102 181.919 568.647 181.148 568.362 180.308C568.077 179.468 567.97 178.578 568.047 177.695L568.052 177.646C568.191 176.053 568.921 174.569 570.099 173.489C571.276 172.408 572.815 171.809 574.413 171.809C575.298 171.809 576.174 171.993 576.984 172.35C577.795 172.707 578.522 173.229 579.12 173.883C579.718 174.537 580.174 175.308 580.459 176.148C580.744 176.988 580.851 177.878 580.774 178.761V178.761Z" fill="#0AA1DD"/>
<path d="M557.107 151H522.267C521.867 151.003 521.469 150.926 521.099 150.775C520.728 150.623 520.39 150.4 520.106 150.117C519.822 149.835 519.596 149.499 519.442 149.129C519.288 148.758 519.209 148.361 519.209 147.96C519.209 147.559 519.288 147.162 519.442 146.792C519.596 146.421 519.822 146.085 520.106 145.803C520.39 145.52 520.728 145.297 521.099 145.145C521.469 144.994 521.867 144.917 522.267 144.92H557.107C557.507 144.917 557.904 144.994 558.275 145.145C558.646 145.297 558.983 145.52 559.268 145.803C559.552 146.085 559.777 146.421 559.931 146.792C560.085 147.162 560.165 147.559 560.165 147.96C560.165 148.361 560.085 148.758 559.931 149.129C559.777 149.499 559.552 149.835 559.268 150.117C558.983 150.4 558.646 150.623 558.275 150.775C557.904 150.926 557.507 151.003 557.107 151Z" fill="#0AA1DD"/>
<path d="M552.278 163.026H522.267C521.867 163.029 521.469 162.953 521.099 162.801C520.728 162.65 520.39 162.426 520.106 162.144C519.822 161.861 519.596 161.525 519.442 161.155C519.288 160.785 519.209 160.388 519.209 159.986C519.209 159.585 519.288 159.188 519.442 158.818C519.596 158.448 519.822 158.112 520.106 157.829C520.39 157.546 520.728 157.323 521.099 157.172C521.469 157.02 521.867 156.944 522.267 156.947H552.278C553.079 156.953 553.845 157.276 554.409 157.845C554.974 158.415 555.29 159.184 555.29 159.986C555.29 160.789 554.974 161.558 554.409 162.128C553.845 162.697 553.079 163.02 552.278 163.026Z" fill="#0AA1DD"/>
<path d="M547.45 175.051H522.267C521.867 175.054 521.469 174.978 521.099 174.827C520.728 174.675 520.39 174.452 520.106 174.169C519.822 173.887 519.596 173.551 519.442 173.18C519.288 172.81 519.209 172.413 519.209 172.012C519.209 171.611 519.288 171.214 519.442 170.843C519.596 170.473 519.822 170.137 520.106 169.854C520.39 169.572 520.728 169.348 521.099 169.197C521.469 169.046 521.867 168.969 522.267 168.972H547.45C547.85 168.969 548.247 169.046 548.618 169.197C548.989 169.348 549.326 169.572 549.611 169.854C549.895 170.137 550.121 170.473 550.275 170.843C550.428 171.214 550.508 171.611 550.508 172.012C550.508 172.413 550.428 172.81 550.275 173.18C550.121 173.551 549.895 173.887 549.611 174.169C549.326 174.452 548.989 174.675 548.618 174.827C548.247 174.978 547.85 175.054 547.45 175.051Z" fill="#0AA1DD"/>
<path d="M558.709 449.782H583.721C589.801 449.782 594.73 453.636 594.73 458.39V473.205C594.73 477.959 589.801 481.813 583.721 481.813H558.709V449.782Z" fill="#0AA1DD"/>
<path d="M567.727 519.51L576.417 380.929C577.181 368.741 575.444 356.526 571.313 345.037C567.182 333.548 560.745 323.029 552.398 314.128C544.051 305.226 533.971 298.132 522.781 293.283C511.591 288.433 499.527 285.932 487.335 285.932C464.532 285.932 442.594 294.672 426.022 310.36C409.45 326.047 399.502 347.492 398.218 370.293L389.105 532.154H554.285C557.711 532.154 561.008 530.846 563.505 528.497C566.003 526.148 567.512 522.935 567.727 519.51Z" fill="#0AA1DD"/>
<path opacity="0.1" d="M568.041 514.491L576.417 380.928C577.181 368.741 575.444 356.526 571.313 345.037C567.182 333.548 560.744 323.028 552.397 314.127C544.05 305.226 533.971 298.132 522.781 293.282C511.591 288.433 499.527 285.931 487.334 285.931C464.532 285.931 442.593 294.672 426.022 310.359C409.45 326.046 399.502 347.491 398.218 370.292L389.105 532.153H549.263C554.049 532.153 558.655 530.327 562.144 527.045C565.633 523.764 567.742 519.275 568.041 514.491Z" fill="#333333"/>
<path d="M540.918 532.154L550.401 380.929C551.165 368.741 549.428 356.526 545.297 345.037C541.166 333.548 534.729 323.029 526.382 314.128C518.035 305.226 507.955 298.132 496.765 293.283C485.575 288.433 473.511 285.932 461.319 285.932C438.516 285.932 416.578 294.672 400.006 310.36C383.434 326.047 373.486 347.492 372.202 370.293L363.089 532.154H540.918Z" fill="#0AA1DD"/>
<path d="M543.761 558.188H546.044C546.658 558.151 547.24 557.898 547.686 557.473C548.131 557.048 548.412 556.478 548.478 555.865L551.844 532.161H537.96L541.326 555.865C541.392 556.478 541.673 557.047 542.119 557.473C542.565 557.898 543.147 558.151 543.761 558.188Z" fill="#0AA1DD"/>
<path opacity="0.7" d="M543.761 558.188H546.044C546.658 558.151 547.24 557.898 547.686 557.473C548.131 557.048 548.412 556.478 548.478 555.865L551.844 532.161H537.96L541.326 555.865C541.392 556.478 541.673 557.047 542.119 557.473C542.565 557.898 543.147 558.151 543.761 558.188Z" fill="#FDFEFF"/>
<path d="M320.177 558.188H322.245C322.829 558.126 323.371 557.858 323.775 557.433C324.18 557.007 324.42 556.451 324.453 555.865L327.504 532.161H314.918L317.969 555.866C318.002 556.452 318.242 557.008 318.647 557.433C319.051 557.858 319.593 558.126 320.177 558.188Z" fill="#0AA1DD"/>
<path opacity="0.5" d="M320.177 558.188H322.245C322.829 558.126 323.371 557.858 323.775 557.433C324.18 557.007 324.42 556.451 324.453 555.865L327.504 532.161H314.918L317.969 555.866C318.002 556.452 318.242 557.008 318.647 557.433C319.051 557.858 319.593 558.126 320.177 558.188Z" fill="#FDFEFF"/>
<path d="M384.55 558.188H386.618C387.202 558.126 387.744 557.858 388.148 557.433C388.553 557.007 388.793 556.452 388.826 555.865L391.877 532.16H379.291L382.342 555.865C382.375 556.451 382.615 557.007 383.019 557.433C383.424 557.859 383.966 558.126 384.55 558.188Z" fill="#0AA1DD"/>
<path opacity="0.7" d="M384.55 558.188H386.618C387.202 558.126 387.744 557.858 388.148 557.433C388.553 557.007 388.793 556.452 388.826 555.865L391.877 532.16H379.291L382.342 555.865C382.375 556.451 382.615 557.007 383.019 557.433C383.424 557.859 383.966 558.126 384.55 558.188Z" fill="#FDFEFF"/>
<path d="M474.457 558.188H476.739C477.353 558.151 477.935 557.898 478.381 557.473C478.827 557.048 479.107 556.478 479.174 555.865L482.54 532.161H468.656L472.022 555.865C472.088 556.478 472.369 557.047 472.814 557.473C473.26 557.898 473.842 558.151 474.457 558.188Z" fill="#0AA1DD"/>
<path opacity="0.5" d="M474.457 558.188H476.739C477.353 558.151 477.935 557.898 478.381 557.473C478.827 557.048 479.107 556.478 479.174 555.865L482.54 532.161H468.656L472.022 555.865C472.088 556.478 472.369 557.047 472.814 557.473C473.26 557.898 473.842 558.151 474.457 558.188Z" fill="#FDFEFF"/>
<path d="M399.108 475.042H338.257L334.225 416.284L333.366 403.671V403.652L332.97 397.847C332.857 396.322 332.659 394.805 332.375 393.302C332.309 392.974 332.226 392.627 332.16 392.298C332.125 392.049 332.064 391.804 331.978 391.568C330.332 385.584 327.134 380.143 322.709 375.797C317.612 370.742 310.867 367.696 303.709 367.218H360.942C361.569 367.181 362.197 367.163 362.825 367.163C370.598 367.214 378.042 370.314 383.56 375.797C387.985 380.143 391.183 385.584 392.829 391.568C392.915 391.804 392.976 392.049 393.011 392.298C393.419 394.125 393.69 395.98 393.82 397.847L394.217 403.652V403.67L399.108 475.042Z" fill="#0AA1DD"/>
<path opacity="0.1" d="M399.108 475.042H338.257L334.225 416.284L333.366 403.671V403.652L332.97 397.847C332.857 396.322 332.659 394.805 332.375 393.302C332.309 392.974 332.226 392.627 332.16 392.298C332.125 392.049 332.064 391.804 331.978 391.568C330.332 385.584 327.134 380.143 322.709 375.797C317.612 370.742 310.867 367.696 303.709 367.218H360.942C361.569 367.181 362.197 367.163 362.825 367.163C370.598 367.214 378.042 370.314 383.56 375.797C387.985 380.143 391.183 385.584 392.829 391.568C392.915 391.804 392.976 392.049 393.011 392.298C393.419 394.125 393.69 395.98 393.82 397.847L394.217 403.652V403.67L399.108 475.042Z" fill="#333333"/>
<g opacity="0.1">
<path opacity="0.1" d="M447.334 443.742H471.78C477.722 443.742 482.54 447.509 482.54 452.156V466.635C482.54 471.281 477.722 475.048 471.78 475.048H447.334V443.742Z" fill="#333333"/>
</g>
<path d="M347.545 443.742H455.169C460.296 443.742 464.452 447.905 464.452 453.04V465.751C464.452 470.886 460.296 475.048 455.169 475.048H347.545C342.418 475.048 338.262 470.886 338.262 465.751V453.04C338.262 447.905 342.418 443.742 347.545 443.742Z" fill="#0AA1DD"/>
<path d="M601.4 401.882C601.402 410.066 598.517 417.988 593.255 424.25C587.993 430.512 580.692 434.711 572.639 436.107L566.333 519.617C565.787 526.718 560.647 532.158 554.487 532.158H487.36C493.521 532.158 498.661 526.718 499.207 519.617L502.579 475.042L505.513 436.107C510.788 435.197 515.781 433.074 520.098 429.903C524.416 426.732 527.939 422.601 530.391 417.836C530.719 417.233 531.011 416.594 531.284 415.955C533.266 411.53 534.285 406.732 534.273 401.882C534.273 399.502 534.029 397.129 533.544 394.799C533.362 393.868 533.125 392.938 532.87 392.043C531.649 387.959 529.697 384.131 527.111 380.744L527.092 380.726C523.852 376.511 519.689 373.097 514.924 370.745C510.16 368.394 504.92 367.169 499.608 367.164H566.734C572.046 367.169 577.286 368.394 582.051 370.745C586.815 373.096 590.978 376.511 594.219 380.726L594.237 380.744C598.889 386.805 601.408 394.237 601.4 401.882Z" fill="#0AA1DD"/>
<path opacity="0.1" d="M601.4 401.882C601.402 410.066 598.517 417.988 593.255 424.25C587.993 430.512 580.692 434.711 572.639 436.107L566.333 519.617C565.787 526.718 560.647 532.158 554.487 532.158H487.36C493.521 532.158 498.661 526.718 499.207 519.617L502.579 475.042L505.513 436.107C510.788 435.197 515.781 433.074 520.098 429.903C524.416 426.732 527.939 422.601 530.391 417.836C530.719 417.233 531.011 416.594 531.284 415.955C533.266 411.53 534.285 406.732 534.273 401.882C534.273 399.502 534.029 397.129 533.544 394.799C533.362 393.868 533.125 392.938 532.87 392.043C531.649 387.959 529.697 384.131 527.111 380.744L527.092 380.726C523.852 376.511 519.689 373.097 514.924 370.745C510.16 368.394 504.92 367.169 499.608 367.164H566.734C572.046 367.169 577.286 368.394 582.051 370.745C586.815 373.096 590.978 376.511 594.219 380.726L594.237 380.744C598.889 386.805 601.408 394.237 601.4 401.882Z" fill="#333333"/>
<path d="M534.28 401.885C534.28 419.035 523.011 433.317 508.203 436.103L502.487 519.613C501.995 526.72 497.338 532.162 491.74 532.162H312.503C306.92 532.162 302.263 526.72 301.755 519.613L296.024 435.971C281.516 432.921 270.544 418.821 270.544 401.885C270.509 394.777 272.52 387.809 276.336 381.815C279.233 377.248 283.219 373.474 287.934 370.832C292.224 368.422 297.061 367.156 301.98 367.155C309.752 367.214 317.193 370.315 322.712 375.796C327.141 380.137 330.339 385.577 331.982 391.561C332.064 391.802 332.124 392.051 332.161 392.303C332.57 394.127 332.84 395.979 332.967 397.844L333.37 403.649V403.666L338.251 475.038H465.992L471.275 397.845C472.037 386.944 477.336 377.858 484.694 373.554C489.348 369.837 495.025 367.633 500.964 367.238C501.589 367.178 502.217 367.15 502.845 367.155C507.617 367.151 512.313 368.347 516.503 370.635C516.635 370.694 516.765 370.76 516.891 370.833C521.227 373.252 524.95 376.637 527.772 380.727L527.787 380.744C532.053 386.963 534.319 394.34 534.28 401.885Z" fill="#0AA1DD"/>
<path opacity="0.1" d="M463.035 532.162H312.502C306.92 532.162 302.263 526.72 301.755 519.613L296.024 435.971C281.515 432.921 270.544 418.821 270.544 401.885C270.509 394.777 272.52 387.809 276.336 381.815C279.233 377.248 283.219 373.474 287.934 370.832C292.224 368.422 297.06 367.156 301.98 367.155C309.752 367.214 317.193 370.315 322.712 375.796C327.14 380.137 330.339 385.577 331.981 391.561C332.064 391.802 332.124 392.051 332.161 392.303C332.57 394.127 332.839 395.979 332.967 397.844L333.37 403.649V403.666L338.251 475.038H465.992L463.035 532.162Z" fill="#FDFEFF"/>
<path d="M417.212 561.656L402.608 565.708L389.511 531.339L404.102 527.285L417.212 561.656Z" fill="#FFC3BD"/>
<path d="M396.071 561.144C397.227 559.649 398.893 558.634 400.751 558.296L415.791 555.369C416.127 555.29 416.481 555.341 416.781 555.512C417.081 555.683 417.305 555.962 417.408 556.292L422.06 570.026C422.324 570.778 422.279 571.606 421.935 572.325C421.59 573.044 420.975 573.597 420.223 573.862L420.124 573.895C414.582 576.083 410.833 575.329 402.161 577.008C396.821 578.051 385.6 581.609 378.104 581.302C370.608 580.995 370.629 573.566 373.781 573.02C384.968 571.261 393.529 564.53 396.071 561.144Z" fill="#263238"/>
<g opacity="0.2">
<path opacity="0.2" d="M389.509 531.351L396.264 549.071L410.868 545.005L404.114 527.287L389.509 531.351Z" fill="#333333"/>
</g>
<path d="M438.219 400.98C438.219 400.98 350.33 400.499 353.073 429.982C354.925 449.885 364.47 470.827 371.916 491.033C382.707 520.32 392.065 545.836 392.065 545.836L412.094 538.897C412.094 538.897 394.108 454.191 381.985 445.525H456.299C480.89 445.525 491.522 418.475 467.58 386.947C452.945 386.961 438.219 400.98 438.219 400.98Z" fill="#0AA1DD"/>
<path opacity="0.6" d="M438.219 400.98C438.219 400.98 350.33 400.499 353.073 429.982C351.71 448.296 392.065 545.836 392.065 545.836L412.094 538.897C412.094 538.897 394.108 454.191 381.985 445.525H456.299C480.89 445.525 491.522 418.475 467.58 386.947C452.945 386.961 438.219 400.98 438.219 400.98Z" fill="#333333"/>
<path d="M376.241 347.384C387.05 357.282 408.297 333.869 411.711 331.081C419.041 325.095 440.574 304.958 439.434 297.968C436.078 277.388 402.339 306.542 392.61 326.625L376.241 347.384Z" fill="#263238"/>
<path d="M470.896 285.496C476.315 286.65 482.185 284.687 485.998 288.713C489.81 292.74 491.407 298.405 491.962 303.926C492.441 311.635 492.039 319.374 490.764 326.993C489.571 336.273 488.378 345.554 487.185 354.834C486.419 362.479 486.712 370.193 488.056 377.757L488.066 377.805C488.206 378.608 488.076 379.436 487.696 380.157C487.317 380.879 486.709 381.455 485.968 381.794C485.968 381.794 443.887 383.247 431.654 382.782C425.147 382.534 429.61 365.405 427.618 355.415C427.176 353.199 422.818 344.041 422.177 341.694C419.155 330.632 421.158 323.035 423.961 311.916C425.994 303.848 426.83 292.206 430.94 291.312C438.256 289.722 455.793 282.278 470.896 285.496Z" fill="#0AA1DD"/>
<path opacity="0.8" d="M470.896 285.496C476.315 286.65 482.185 284.687 485.998 288.713C489.81 292.74 491.407 298.405 491.962 303.926C492.441 311.635 492.039 319.374 490.764 326.993C489.571 336.273 488.378 345.554 487.185 354.834C486.419 362.479 486.712 370.193 488.056 377.757L488.066 377.805C488.206 378.608 488.076 379.436 487.696 380.157C487.317 380.879 486.709 381.455 485.968 381.794C485.968 381.794 443.887 383.247 431.654 382.782C425.147 382.534 429.61 365.405 427.618 355.415C427.176 353.199 422.818 344.041 422.177 341.694C419.155 330.632 421.158 323.035 423.961 311.916C425.994 303.848 426.83 292.206 430.94 291.312C438.256 289.722 455.793 282.278 470.896 285.496Z" fill="#FDFEFF"/>
<path d="M476.91 293.404C477.468 292.551 492.265 280.07 494.96 294.489C498.711 314.557 490.953 334.307 490.953 334.307C490.953 334.307 489.171 356.028 482.88 358.193C476.589 360.358 470.585 360.899 468.465 357.187C467.093 354.285 466.369 351.118 466.345 347.907C466.345 347.907 467.099 308.399 476.91 293.404Z" fill="#263238"/>
<path d="M466.657 257.951C465.124 267.194 463.837 284.077 470.439 290.026C470.439 290.026 454.323 298.474 443.756 313.21C441.408 311.455 439.672 309.005 438.794 306.207C437.915 303.408 437.939 300.404 438.861 297.62C439.384 295.866 440.254 294.235 441.421 292.824C442.587 291.414 444.025 290.254 445.649 289.413C451.905 285.964 451.307 279.512 449.591 273.442L466.657 257.951Z" fill="#E8BFBF"/>
<path opacity="0.2" d="M464.552 273.637L458.544 275.946C455.97 276.935 453.221 277.381 450.468 277.257C450.891 279.138 450.891 281.09 450.468 282.971C452.615 283.554 454.885 283.502 457.004 282.822C459.122 282.141 460.999 280.861 462.407 279.136C463.392 277.42 464.115 275.567 464.552 273.637Z" fill="#333333"/>
<path d="M315.432 532.103H299.083L316.212 491.021L327.3 509.882L315.432 532.103Z" fill="#FFC3BD"/>
<path d="M300.423 528.222L319.613 523.857C319.94 523.77 320.288 523.81 320.587 523.97C320.886 524.129 321.114 524.395 321.224 524.716L326.575 539.496C326.683 539.868 326.717 540.257 326.674 540.642C326.632 541.027 326.514 541.4 326.328 541.74C326.141 542.079 325.89 542.378 325.588 542.621C325.286 542.863 324.939 543.043 324.568 543.151C324.538 543.16 324.508 543.168 324.477 543.176C317.75 544.583 314.442 544.922 306.004 546.841C300.808 548.021 287.664 551.477 280.5 553.106C273.336 554.735 271.447 547.702 274.301 546.368C287.097 540.435 294.034 534.762 297.752 529.929C298.414 529.064 299.36 528.46 300.423 528.222Z" fill="#263238"/>
<g opacity="0.2">
<path opacity="0.2" d="M316.212 491.034L308.92 508.528L323.629 516.757L327.3 509.896L316.212 491.034Z" fill="#333333"/>
</g>
<path d="M488.389 381.937L490.157 387.521C490.391 387.951 489.897 388.406 489.169 388.432L425.781 390.359C425.209 390.359 424.741 390.111 424.689 389.747L423.961 384.136C423.961 383.746 424.39 383.407 425.001 383.382L487.285 381.495C487.491 381.463 487.703 381.487 487.897 381.564C488.092 381.642 488.261 381.771 488.389 381.937Z" fill="#263238"/>
<path d="M409.179 427.786C430.007 436.674 452.607 445.564 464.89 445.564C489.494 445.564 511.349 427.772 488.051 387.312C473.416 387.26 447.967 387.728 447.967 387.728C447.967 387.728 399.978 374.093 365.172 378.067C356.899 379.026 349.145 382.592 343.028 388.252C336.91 393.911 332.747 401.371 331.138 409.554C322.303 454.078 308.7 502.306 308.7 502.306L326.206 514.243C326.206 514.243 353.502 456.759 369.215 411.146C377.523 413.811 392.803 420.798 409.179 427.786Z" fill="#0AA1DD"/>
<path opacity="0.5" d="M331.138 409.554C332.747 401.371 336.91 393.911 343.027 388.252C349.145 382.592 356.899 379.026 365.172 378.067C399.978 374.093 447.967 387.728 447.967 387.728C447.967 387.728 473.416 387.26 488.051 387.312C511.728 427.633 489.494 445.564 464.89 445.564C452.607 445.564 430.007 436.674 409.179 427.786C392.802 420.798 377.523 413.811 369.216 411.146C353.502 456.759 326.207 514.243 326.207 514.243L308.699 502.306C308.699 502.306 322.303 454.078 331.138 409.554Z" fill="#333333"/>
<path d="M353.067 429.987C353.627 435.713 354.486 441.405 355.641 447.04C355.719 446.858 355.797 446.688 355.862 446.506C355.888 446.455 355.901 446.415 355.927 446.363C356.005 446.18 356.057 445.986 356.148 445.816C360.814 434.23 365.363 422.346 369.21 411.164C369.171 411.175 369.132 411.188 369.093 411.203V411.19C359.059 415.447 352.275 421.461 353.067 429.987Z" fill="#0AA1DD"/>
<path opacity="0.6" d="M353.067 429.987C353.627 435.713 354.486 441.405 355.641 447.04C355.719 446.858 355.797 446.688 355.862 446.506C355.888 446.455 355.901 446.415 355.927 446.363C356.005 446.18 356.057 445.986 356.148 445.816C360.814 434.23 365.363 422.346 369.21 411.164C369.171 411.175 369.132 411.188 369.093 411.203V411.19C359.059 415.447 352.275 421.461 353.067 429.987Z" fill="#333333"/>
<path d="M477.897 243.548C476.685 258.873 476.497 265.382 468.607 273.113C456.728 284.781 438.226 279.875 434.847 264.491C431.808 250.656 434.305 227.913 449.405 222.095C452.73 220.793 456.332 220.365 459.871 220.85C463.409 221.336 466.765 222.719 469.62 224.869C472.476 227.019 474.735 229.864 476.183 233.133C477.632 236.402 478.222 239.988 477.897 243.548Z" fill="#E8BFBF"/>
<path d="M452.305 248.452C452.281 249.763 451.607 250.708 450.781 250.686C449.956 250.665 449.37 249.651 449.347 248.398C449.323 247.145 450.047 246.156 450.871 246.164C451.695 246.172 452.322 247.207 452.305 248.452Z" fill="#263238"/>
<path d="M438.223 247.835C438.213 249.145 437.525 250.091 436.713 250.068C435.901 250.045 435.302 249.033 435.279 247.779C435.255 246.526 435.978 245.536 436.789 245.547C437.599 245.557 438.254 246.589 438.223 247.835Z" fill="#263238"/>
<path d="M437.176 245.625L434.194 244.697C434.194 244.697 435.664 247.073 437.176 245.625Z" fill="#263238"/>
<path d="M443.591 249.229C442.43 252.056 440.889 254.712 439.011 257.123C439.639 257.586 440.362 257.903 441.127 258.052C441.892 258.201 442.681 258.178 443.436 257.984L443.591 249.229Z" fill="#ED847E"/>
<path d="M489.53 250.417C489.182 253.207 489.112 256.025 489.322 258.83C489.896 261.55 491.461 263.959 493.713 265.587C495.965 267.215 498.741 267.944 501.5 267.632C499.357 268.865 496.855 269.319 494.415 268.918C491.975 268.516 489.749 267.282 488.112 265.426C490.305 268.44 493.568 270.498 497.229 271.177C494.929 271.819 492.512 271.921 490.165 271.476C487.818 271.032 485.605 270.052 483.697 268.613C485.021 270.416 486.345 272.218 487.669 274.021C483.105 272.698 478.975 270.179 475.706 266.725C474.378 265.317 473.137 263.334 473.904 261.558C474.597 259.952 476.542 259.403 478.221 258.917C479.899 258.431 481.813 257.498 482.011 255.759C482.202 254.086 480.652 252.744 479.146 251.994C477.64 251.244 475.9 250.647 475.033 249.203C474.51 248.124 474.274 246.927 474.349 245.73L474.135 235.976C474.044 234.839 474.153 233.695 474.457 232.596C476.455 226.747 482.064 233.038 483.949 235.188C487.64 239.391 489.631 244.822 489.53 250.417Z" fill="#263238"/>
<path d="M478.893 263.258C476.958 265.79 474.099 267.45 470.943 267.874C466.75 268.393 465.276 264.488 466.957 260.857C468.475 257.583 472.486 253.381 476.442 254.486C480.397 255.59 481.247 260.105 478.893 263.258Z" fill="#E8BFBF"/>
<path d="M449.407 238.515C449.473 238.663 449.583 238.786 449.723 238.868C449.862 238.95 450.024 238.986 450.185 238.971C453.715 238.708 456.651 242.203 456.671 242.233C456.734 242.312 456.813 242.377 456.901 242.424C456.99 242.472 457.087 242.502 457.187 242.512C457.287 242.523 457.388 242.513 457.484 242.484C457.58 242.455 457.67 242.407 457.748 242.343C457.825 242.28 457.89 242.201 457.937 242.113C457.984 242.024 458.014 241.926 458.024 241.826C458.033 241.726 458.023 241.625 457.994 241.529C457.965 241.432 457.916 241.343 457.852 241.265C457.672 241.159 454.381 237.121 450.077 237.433C449.876 237.45 449.69 237.546 449.559 237.699C449.427 237.852 449.361 238.051 449.374 238.253C449.365 238.341 449.376 238.431 449.407 238.515Z" fill="#263238"/>
<path d="M439.706 237.568C439.811 237.519 439.925 237.494 440.04 237.493C440.155 237.493 440.269 237.517 440.374 237.564C440.614 237.717 441.304 237.901 441.007 238.166C439.268 239.748 436.928 242.176 434.689 242.411C434.311 242.433 433.363 242.349 433.481 242.044C433.566 241.875 433.694 241.731 433.851 241.627C434.008 241.523 434.19 241.462 434.379 241.45C436.155 241.237 437.99 239.023 439.358 237.77C439.463 237.685 439.581 237.617 439.706 237.568Z" fill="#263238"/>
<path d="M451.232 246.245L448.251 245.329C448.251 245.329 449.745 247.69 451.232 246.245Z" fill="#263238"/>
<path d="M443.643 217.012C449.015 214.47 449.632 213.904 455.457 212.725C461.288 211.372 467.393 211.817 472.97 214.001C478.286 216.432 482.671 220.525 485.465 225.666C488.227 230.791 489.894 236.435 490.361 242.238C490.888 244.925 490.415 247.712 489.03 250.073C488.037 247.149 486.74 244.339 485.16 241.686C483.562 239.02 481.166 236.925 478.312 235.7C477.108 235.41 475.986 234.847 475.032 234.055C474.421 233.184 473.949 232.224 473.634 231.207C472.501 229.027 470.575 227.366 468.254 226.568C465.953 225.788 463.573 225.271 461.157 225.025C453.397 223.879 445.343 224.198 437.845 221.887C439.573 220.032 441.52 218.395 443.643 217.012Z" fill="#263238"/>
<path d="M478.429 231.437C477.406 233.678 475.681 235.523 473.515 236.693C470.942 238.059 464.042 239.744 463.438 239.133C462.717 238.402 463.203 230.161 465.855 228.954C464.436 231.319 462.531 233.354 460.267 234.926C457.573 236.24 454.646 237.009 451.654 237.191C450.124 237.237 451.753 230.348 453.655 227.988C446.929 231.387 439.856 235.101 435.958 241.558C431.949 248.198 432.087 256.677 434.36 264.1C432.884 263.451 431.575 262.473 430.534 261.239C429.493 260.006 428.749 258.55 428.357 256.984C428.144 261.198 428.781 265.412 430.23 269.375C431.679 273.338 433.91 276.968 436.791 280.049C427.543 275.856 421.795 265.734 421.214 255.587C420.633 245.441 424.637 235.43 430.642 227.241C435.777 220.239 442.665 214.189 450.993 211.746C461.976 208.526 485.697 215.588 478.429 231.437Z" fill="#263238"/>
<path d="M472.299 283.327C472.232 282.762 472.165 282.022 472.097 281.218C471.943 279.41 472.466 277.61 473.565 276.167C474.664 274.724 476.259 273.742 478.041 273.412L478.133 273.395C478.662 273.299 479.156 273.064 479.564 272.713C479.972 272.363 480.279 271.911 480.455 271.402C481.784 267.563 482.292 266.399 483.564 262.624C487.023 261.792 491.098 263.068 494.684 263.455C495.676 267.754 495.743 272.216 494.881 276.543C494.755 277.518 494.378 278.443 493.785 279.226C490.54 281.892 486.949 284.106 483.112 285.81C479.941 286.757 475.594 283.634 472.299 283.327Z" fill="#E8BFBF"/>
<path d="M482.667 285.909C482.667 285.909 492.094 346.832 482.384 356.118C476.675 361.577 471.748 358.565 468.656 355.155C467.53 353.886 466.683 352.394 466.17 350.776C465.658 349.158 465.491 347.45 465.681 345.763L472.299 283.327C472.299 283.327 478.842 279.525 482.667 285.909Z" fill="#E8BFBF"/>
<path d="M381.364 340.881C378.59 338.782 376.378 336.028 374.925 332.865C373.472 329.701 372.823 326.227 373.036 322.751C373.13 311.715 376.236 291.48 376.236 291.48L385.194 288.516C385.194 288.516 387.979 303.911 388.595 312.372C388.714 314.035 388.903 315.993 389.103 318.058C389.505 321.826 389.987 325.983 390.416 329.416L381.364 340.881Z" fill="#E8BFBF"/>
<path d="M376.236 347.385C373.491 344.864 373.023 341.82 371.604 335.316C370.252 329.175 371.778 321.679 373.036 322.751C373.193 322.9 373.312 323.084 373.384 323.288C375.553 328.424 384.015 323.918 386.412 321.357C387.438 320.369 388.341 319.261 389.104 318.058C389.427 317.604 389.607 317.064 389.619 316.506C389.63 315.949 389.474 315.401 389.17 314.934C391.768 313.861 393.857 324.106 392.612 326.627L391.977 328.524C390.945 331.613 389.35 334.483 387.272 336.989L382.567 342.665L376.236 347.385Z" fill="#263238"/>
<path d="M385.426 289.827L386.496 274.174C383.698 275.487 380.812 276.601 377.858 277.508C373.5 278.991 367.639 276.372 368.946 279.202C371.132 283.435 373.566 287.535 376.236 291.48L385.426 289.827Z" fill="#E8BFBF"/>
<path d="M386.496 274.174L379.829 258.489L371.075 263.856C368.663 269.097 368.946 279.201 368.946 279.201C368.946 279.201 381.079 279.753 386.496 274.174Z" fill="#E8BFBF"/>
<path d="M448.822 264.819C448.893 265.962 448.326 266.921 447.579 266.953C446.831 266.986 446.189 266.097 446.134 264.95C446.079 263.803 446.634 262.863 447.382 262.831C448.13 262.799 448.784 263.734 448.822 264.819Z" fill="#263238"/>
<path d="M465.992 475.038L471.275 397.845C472.036 386.944 477.335 377.858 484.694 373.554C489.348 369.837 495.025 367.633 500.964 367.238C501.589 367.178 502.217 367.15 502.845 367.155C507.617 367.151 512.313 368.347 516.502 370.635C516.635 370.694 516.765 370.76 516.891 370.833C521.227 373.252 524.95 376.637 527.772 380.727L527.787 380.744C532.053 386.963 534.319 394.34 534.28 401.885C534.28 419.036 523.011 433.317 508.203 436.104L502.487 519.613C501.995 526.721 497.338 532.163 491.74 532.163H463.036L465.992 475.038Z" fill="#0AA1DD"/>
<path opacity="0.1" d="M465.992 475.038L471.275 397.845C472.036 386.944 477.335 377.858 484.694 373.554C489.348 369.837 495.025 367.633 500.964 367.238C501.589 367.178 502.217 367.15 502.845 367.155C507.617 367.151 512.313 368.347 516.502 370.635C516.635 370.694 516.765 370.76 516.891 370.833C521.227 373.252 524.95 376.637 527.772 380.727L527.787 380.744C532.053 386.963 534.319 394.34 534.28 401.885C534.28 419.036 523.011 433.317 508.203 436.104L502.487 519.613C501.995 526.721 497.338 532.163 491.74 532.163H463.036L465.992 475.038Z" fill="#FDFEFF"/>
<path d="M261.427 615.947C229.726 615.947 204.027 609.364 204.027 601.245C204.027 593.125 229.726 586.542 261.427 586.542C293.129 586.542 318.828 593.125 318.828 601.245C318.828 609.364 293.129 615.947 261.427 615.947Z" fill="#333333"/>
<path opacity="0.3" d="M261.427 611.06C229.726 611.06 204.027 605.571 204.027 598.801C204.027 592.031 229.726 586.542 261.427 586.542C293.129 586.542 318.828 592.031 318.828 598.801C318.828 605.571 293.129 611.06 261.427 611.06Z" fill="#E0E0E0"/>
<path d="M256.692 598.785H266.163L277.124 480.489H245.731L256.692 598.785Z" fill="#333333"/>
<path d="M245.731 480.488C245.731 483.933 252.758 486.727 261.427 486.727C270.096 486.727 277.124 483.933 277.124 480.488C277.124 477.043 270.096 474.25 261.427 474.25C252.759 474.25 245.731 477.042 245.731 480.488Z" fill="#263238"/>
<path opacity="0.7" d="M245.731 480.488C245.731 483.933 252.758 486.727 261.427 486.727C270.096 486.727 277.124 483.933 277.124 480.488C277.124 477.043 270.096 474.25 261.427 474.25C252.759 474.25 245.731 477.042 245.731 480.488Z" fill="#FDFEFF"/>
<path opacity="0.7" d="M453.302 482.338C453.26 481.63 453.075 480.938 452.761 480.302C452.446 479.666 452.008 479.1 451.471 478.636C438.209 492.005 354.063 502.305 252.24 502.305C150.417 502.305 66.2712 492.005 52.9914 478.636C52.4548 479.1 52.0162 479.666 51.7018 480.302C51.3872 480.938 51.2032 481.63 51.1603 482.338C51.1603 497.438 141.193 509.692 252.24 509.692C363.287 509.692 453.302 497.438 453.302 482.338Z" fill="#FDFEFF"/>
<path opacity="0.7" d="M451.471 485.75C438.208 472.382 354.063 462.098 252.24 462.098C150.416 462.098 66.271 472.382 52.9912 485.75C66.271 499.119 150.416 509.419 252.24 509.419C354.063 509.419 438.208 499.119 451.471 485.75Z" fill="#FDFEFF"/>
<path opacity="0.7" d="M453.302 481.807C453.302 466.69 363.287 454.453 252.24 454.453C141.193 454.453 51.1603 466.69 51.1603 481.807C51.2017 482.513 51.3853 483.203 51.7 483.837C52.0146 484.47 52.4539 485.033 52.9914 485.492C66.2712 472.123 150.417 461.84 252.24 461.84C354.063 461.84 438.209 472.123 451.471 485.492C452.009 485.033 452.448 484.47 452.763 483.837C453.077 483.203 453.261 482.513 453.302 481.807Z" fill="#FDFEFF"/>
<path d="M274.417 468.485L190.295 466.896C189.84 466.842 189.423 466.612 189.136 466.253C188.848 465.895 188.713 465.438 188.759 464.981C188.736 464.521 188.892 464.069 189.195 463.723C189.499 463.377 189.925 463.162 190.384 463.126L274.505 464.716C274.961 464.769 275.378 464.999 275.665 465.357C275.953 465.716 276.088 466.173 276.042 466.63C276.065 467.09 275.909 467.542 275.606 467.888C275.302 468.234 274.876 468.449 274.417 468.485Z" fill="#263238"/>
<path opacity="0.2" d="M274.417 468.485L190.295 466.896C189.84 466.842 189.423 466.612 189.136 466.253C188.848 465.895 188.713 465.438 188.759 464.981C188.736 464.521 188.892 464.069 189.195 463.723C189.499 463.377 189.925 463.162 190.384 463.126L274.505 464.716C274.961 464.769 275.378 464.999 275.665 465.357C275.953 465.716 276.088 466.173 276.042 466.63C276.065 467.09 275.909 467.542 275.606 467.888C275.302 468.234 274.876 468.449 274.417 468.485Z" fill="#FDFEFF"/>
<path d="M315.276 462.338L275.056 468.426C274.832 468.441 274.608 468.409 274.397 468.334C274.186 468.259 273.993 468.141 273.829 467.988C273.665 467.835 273.534 467.65 273.444 467.445C273.354 467.24 273.306 467.018 273.305 466.794C273.233 466.332 273.336 465.86 273.593 465.471C273.85 465.081 274.243 464.802 274.695 464.687L314.917 458.598C315.14 458.583 315.364 458.615 315.575 458.69C315.786 458.766 315.979 458.883 316.143 459.036C316.307 459.189 316.438 459.374 316.528 459.579C316.618 459.784 316.666 460.006 316.667 460.23C316.739 460.692 316.636 461.164 316.379 461.554C316.122 461.943 315.728 462.223 315.276 462.338Z" fill="#263238"/>
<path d="M314.917 458.597H229.888L190.384 463.127L272.212 464.673L314.917 458.597Z" fill="#263238"/>
<path opacity="0.6" d="M314.917 458.597H229.888L190.384 463.127L272.212 464.673L314.917 458.597Z" fill="#FDFEFF"/>
<path opacity="0.5" d="M315.276 462.338L275.056 468.426C274.832 468.441 274.608 468.409 274.397 468.334C274.186 468.259 273.993 468.141 273.829 467.988C273.665 467.835 273.534 467.65 273.444 467.445C273.354 467.24 273.306 467.018 273.305 466.794C273.233 466.332 273.336 465.86 273.593 465.471C273.85 465.081 274.243 464.802 274.695 464.687L314.917 458.598C315.14 458.583 315.364 458.615 315.575 458.69C315.786 458.766 315.979 458.883 316.143 459.036C316.307 459.189 316.438 459.374 316.528 459.579C316.618 459.784 316.666 460.006 316.667 460.23C316.739 460.692 316.636 461.164 316.379 461.554C316.122 461.943 315.728 462.223 315.276 462.338Z" fill="#FDFEFF"/>
<path d="M272.213 464.672L193.772 463.19C192.29 463.005 190.928 462.281 189.945 461.155C188.961 460.029 188.426 458.581 188.44 457.085L186.076 409.656C185.911 406.35 188.041 403.688 190.809 403.741L269.249 405.223C270.731 405.408 272.093 406.132 273.077 407.258C274.06 408.384 274.596 409.832 274.582 411.328L276.946 458.757C277.111 462.062 274.981 464.725 272.213 464.672Z" fill="#0AA1DD"/>
<path opacity="0.2" d="M272.213 464.672L193.772 463.19C192.29 463.005 190.928 462.281 189.945 461.155C188.961 460.029 188.426 458.581 188.44 457.085L186.076 409.656C185.911 406.35 188.041 403.688 190.809 403.741L269.249 405.223C270.731 405.408 272.093 406.132 273.077 407.258C274.06 408.384 274.596 409.832 274.582 411.328L276.946 458.757C277.111 462.062 274.981 464.725 272.213 464.672Z" fill="#FDFEFF"/>
<path d="M269.91 464.425L191.47 462.943C189.988 462.758 188.625 462.033 187.642 460.908C186.659 459.782 186.123 458.333 186.137 456.838L183.773 409.408C183.608 406.103 185.738 403.441 188.506 403.493L266.947 404.975C268.429 405.16 269.791 405.885 270.774 407.01C271.757 408.136 272.293 409.585 272.279 411.08L274.643 458.51C274.808 461.816 272.678 464.477 269.91 464.425Z" fill="#0AA1DD"/>
<path opacity="0.6" d="M269.91 464.425L191.47 462.943C189.988 462.758 188.625 462.033 187.642 460.908C186.659 459.782 186.123 458.333 186.137 456.838L183.773 409.408C183.608 406.103 185.738 403.441 188.506 403.493L266.947 404.975C268.429 405.16 269.791 405.885 270.774 407.01C271.757 408.136 272.293 409.585 272.279 411.08L274.643 458.51C274.808 461.816 272.678 464.477 269.91 464.425Z" fill="#FDFEFF"/>
<path d="M228.523 444H235L228.478 423H222L228.523 444Z" fill="white"/>
<path d="M240 436L238.081 431H217L218.919 436H240Z" fill="white"/>
</g>
<defs>
<clipPath id="clip0_77_661">
<rect width="691" height="628" fill="white" transform="matrix(-1 0 0 1 691 0)"/>
</clipPath>
</defs>
</svg>
